<?xml version="1.0" standalone="no"?>
<!DOCTYPE svg PUBLIC "-//W3C//DTD SVG 1.1//EN" "http://www.w3.org/Graphics/SVG/1.1/DTD/svg11.dtd" >
<svg xmlns="http://www.w3.org/2000/svg" xmlns:xlink="http://www.w3.org/1999/xlink" version="1.1">
<metadata>
Created by FontForge 20170731 at Mon Mar 12 17:50:09 2018
 By Aleksey,,,
Copyright (c) 2017 by Deepak Singh Dogra. All rights reserved.
</metadata>
<defs>
<font id="Agenor-Regular" horiz-adv-x="1585" >
  <font-face 
    font-family="Agenor"
    font-weight="400"
    font-stretch="normal"
    units-per-em="2048"
    panose-1="0 0 0 0 0 0 0 0 0 0"
    ascent="1638"
    descent="-410"
    x-height="1499"
    cap-height="1499"
    bbox="-51 -612 2750 1937"
    underline-thickness="0"
    underline-position="0"
    unicode-range="U+000D-2265"
  />
<missing-glyph horiz-adv-x="1024" 
 />
    <glyph glyph-name=".notdef" horiz-adv-x="1024" 
 />
    <glyph glyph-name="glyph1" horiz-adv-x="0" 
 />
    <glyph glyph-name="uni000D" unicode="&#xd;" horiz-adv-x="700" 
 />
    <glyph glyph-name="glyph3" horiz-adv-x="0" 
 />
    <glyph glyph-name="glyph3" horiz-adv-x="0" 
 />
    <glyph glyph-name="space" unicode=" " horiz-adv-x="581" 
 />
    <glyph glyph-name="exclam" unicode="!" horiz-adv-x="600" 
d="M453 1497l-45 -930q-6 -131 -138 -131h-73l-45 922q-2 66 32.5 102.5t100.5 36.5h168zM449 135q0 -63 -44.5 -107t-107.5 -44q-61 0 -105.5 44t-44.5 107q0 61 44.5 105.5t105.5 44.5q63 0 107.5 -44.5t44.5 -105.5z" />
    <glyph glyph-name="quotedbl" unicode="&#x22;" horiz-adv-x="909" 
d="M369 1501l-27 -360q-6 -86 -92 -86h-121l-27 352q-6 94 86 94h181zM803 1501l-29 -360q-6 -86 -92 -86h-121l-26 352q-6 94 88 94h180z" />
    <glyph glyph-name="numbersign" unicode="#" horiz-adv-x="1753" 
d="M1516 639l-62 -158q-41 -106 -156 -106h-161l-107 -269q-41 -106 -156 -106h-167l147 375h-264l-105 -269q-41 -106 -155 -106h-168l145 375h-270l61 157q41 106 156 107h158l92 235h-271l62 158q41 106 156 107h155l101 256q41 106 155 106h168l-141 -362h262l102 256
q41 106 156 106h168l-143 -362h278l-61 -158q-41 -106 -156 -107h-164l-92 -235h277zM956 639l93 235h-263l-92 -235h262z" />
    <glyph glyph-name="dollar" unicode="$" horiz-adv-x="1392" 
d="M530 1706h150q135 0 135 -135v-51q217 -29 422 -183l-82 -112q-70 -98 -186 -39q-162 78 -322 78q-100 0 -176 -36t-76 -116q0 -23 6.5 -42t21.5 -35.5t28.5 -29t40 -24.5t43 -19.5t52.5 -17.5t51 -14t55 -13.5t50 -11.5q18 -4 84 -17.5t105 -23.5t103.5 -32.5
t105.5 -54.5t83 -77t62.5 -112.5t20.5 -149.5q0 -209 -132.5 -324.5t-359.5 -131.5v-183h-149q-135 0 -136 135v64q-127 25 -226 76t-208 133l70 106q68 102 186 39q209 -109 381 -108q150 0 218.5 50t68.5 128q0 41 -19.5 72.5t-46 52t-77 37t-91.5 25.5t-106 22
q-63 10 -89 15t-99.5 24.5t-112.5 38t-98.5 54.5t-91 78t-56 104.5t-24.5 137.5q0 197 119.5 301.5t301.5 133.5v188z" />
    <glyph glyph-name="percent" unicode="%" horiz-adv-x="1966" 
d="M451 672q-166 0 -274.5 118.5t-108.5 299.5q0 182 108.5 300.5t274 118.5t274.5 -118.5t109 -300.5q0 -178 -109.5 -298t-273.5 -120zM426 0l834 1409q53 92 161 92h127l-833 -1409q-53 -92 -162 -92h-127zM453 1290q-131 0 -131 -200.5t131 -200.5q127 0 127 200.5
t-127 200.5zM1505 -31q-166 0 -274.5 119t-108.5 299q0 182 108.5 301t274.5 119t274.5 -119t108.5 -301q0 -178 -109.5 -298t-273.5 -120zM1507 588q-131 0 -131 -201t131 -201q127 0 127 201t-127 201z" />
    <glyph glyph-name="ampersand" unicode="&#x26;" horiz-adv-x="1402" 
d="M940 172q-135 -117 -218 -154.5t-202 -42.5q-188 -8 -323.5 110t-135.5 306q0 186 177 334q27 23 118 86q-125 158 -125 307q0 170 114 288t288 118q168 0 278.5 -112t110.5 -269q0 -127 -67.5 -211t-202.5 -174l190 -207q39 47 88 129q70 115 184 53l109 -57
q-84 -152 -199 -307l111 -115q94 -96 -6 -191l-99 -92zM582 940q174 90 176 217q0 61 -38 99t-89 38q-53 0 -96 -40t-43 -111q0 -105 90 -203zM508 225q135 -4 260 121l-266 275q-88 -49 -129 -98.5t-41 -119.5q0 -76 50 -125t126 -53z" />
    <glyph glyph-name="quotesingle" unicode="'" horiz-adv-x="471" 
d="M369 1501l-23 -317q-10 -129 -141 -129h-76l-25 305q-4 68 30 104.5t102 36.5h133z" />
    <glyph glyph-name="parenleft" unicode="(" horiz-adv-x="808" 
d="M625 1432q-246 -258 -246 -682t246 -682l12 -13q96 -92 22 -188l-84 -113q-92 66 -157 137q-326 342 -326 858.5t326 858.5q66 72 157 137l84 -111q72 -94 -20 -188q-2 -2 -5 -4t-5 -5t-4 -5z" />
    <glyph glyph-name="parenright" unicode=")" horiz-adv-x="735" 
d="M133 1432l-14 14q-92 92 -21 188l84 111q92 -66 158 -137q326 -354 326 -858t-326 -859q-66 -72 -158 -137l-84 113q-72 94 23 188l12 13q246 246 246 682t-246 682z" />
    <glyph glyph-name="asterisk" unicode="*" horiz-adv-x="890" 
d="M578 778l-136 191l-82 -117q-53 -74 -129 -23l-86 58l150 190l-145 49q-84 29 -56 119l29 86l223 -80v152q0 92 92 92h99v-244l137 49q90 33 119 -57l28 -86l-229 -80l90 -114q61 -78 -20 -129z" />
    <glyph glyph-name="plus" unicode="+" horiz-adv-x="1161" 
d="M1090 893v-117q0 -135 -136 -135h-241v-383h-129q-135 0 -135 135v248h-377v117q0 135 135 135h242v383h129q135 0 135 -135v-248h377z" />
    <glyph glyph-name="comma" unicode="," horiz-adv-x="430" 
d="M360 160q33 -123 -41.5 -248t-216.5 -156l-10 21q-23 47 33 80q72 45 84 127q-61 -2 -107.5 40t-48.5 103q-2 63 40 108.5t104 49.5q57 2 103 -33t60 -92z" />
    <glyph glyph-name="hyphen" unicode="-" horiz-adv-x="837" 
d="M666 897v-117q0 -135 -136 -135h-370v117q0 135 135 135h371z" />
    <glyph glyph-name="period" unicode="." horiz-adv-x="421" 
d="M362 135q0 -63 -44 -107t-107 -44q-61 0 -105.5 44t-44.5 107q0 61 44.5 105.5t105.5 44.5q63 0 107 -44.5t44 -105.5z" />
    <glyph glyph-name="slash" unicode="/" horiz-adv-x="1110" 
d="M262 -182q-45 -100 -158 -101h-155l864 1891q45 100 158 100h155z" />
    <glyph glyph-name="zero" unicode="0" horiz-adv-x="1529" 
d="M762 -31q-205 0 -360.5 112t-232.5 287t-77 380q0 342 186.5 559t483.5 217q291 0 480.5 -220.5t189.5 -555.5q0 -203 -79 -378t-234.5 -288t-356.5 -113zM762 1255q-147 0 -263 -131t-116 -376q0 -201 98.5 -355.5t280.5 -154.5q147 0 262 137t115 373q0 209 -94.5 358
t-282.5 149z" />
    <glyph glyph-name="one" unicode="1" horiz-adv-x="909" 
d="M45 1008l520 493h183v-1501h-150q-59 0 -98 39t-39 98v871l-121 -115q-100 -92 -190 4z" />
    <glyph glyph-name="two" unicode="2" horiz-adv-x="1314" 
d="M1049 254q135 0 135 -135v-119h-1037v285q47 39 249 209t284 237q125 100 162 171t37 155q0 102 -62.5 156.5t-152.5 54.5q-145 0 -220 -123q-35 -57 -73.5 -77.5t-96.5 -6.5l-153 41q16 61 53 127.5t98.5 136.5t159.5 114t213 44q250 0 385 -140.5t135 -326.5
q0 -162 -75.5 -277.5t-241.5 -257.5q-184 -154 -328 -268h529z" />
    <glyph glyph-name="three" unicode="3" horiz-adv-x="1228" 
d="M881 754q246 -80 245 -348q0 -205 -144 -320t-361 -115q-129 0 -230.5 42t-162 113t-93.5 132t-51 127l125 39q100 33 174 -70q96 -129 238 -131q111 2 165 55.5t54 145.5q0 117 -92.5 169t-284.5 50v98q0 123 135 140q123 12 182.5 58t59.5 144q0 86 -57.5 140.5
t-161.5 54.5q-162 0 -242 -121q-35 -57 -73 -76.5t-95 -1.5l-127 39q18 66 51 127.5t92.5 131t160.5 112.5t228 43q133 0 235.5 -39t160 -103.5t86 -138t28.5 -153.5q0 -78 -20.5 -138.5t-60 -99.5t-75.5 -61t-89 -45z" />
    <glyph glyph-name="four" unicode="4" horiz-adv-x="1376" 
d="M1114 586h47q135 0 135 -135v-119h-182v-332h-151q-135 0 -136 135v197h-718v246l788 923h217v-915zM827 586v432l-352 -432h352z" />
    <glyph glyph-name="five" unicode="5" horiz-adv-x="1282" 
d="M717 1001q205 0 333 -138t128 -369q0 -236 -153 -379.5t-390 -143.5q-344 0 -549 256l78 82q80 86 188 6q123 -86 271 -86q121 0 197.5 73t76.5 202q0 113 -72.5 191.5t-189.5 78.5q-72 0 -132.5 -22.5t-88 -44t-66.5 -60.5l-217 117l137 737h815v-121q0 -135 -135 -135
h-448l-51 -315q98 71 268 71z" />
    <glyph glyph-name="six" unicode="6" horiz-adv-x="1329" 
d="M696 1008q236 10 379.5 -127.5t143.5 -382.5q0 -248 -157 -387.5t-409 -139.5q-137 0 -248.5 51.5t-180 138.5t-102.5 194.5t-22.5 228.5t66.5 231q72 141 393 602q61 84 166 84h227l-364 -520q40 23 108 27zM385 496q0 -117 81 -197t196 -80q117 0 197.5 80t80.5 197
q0 121 -80 203.5t-203 82.5q-115 0 -193.5 -83.5t-78.5 -202.5z" />
    <glyph glyph-name="seven" unicode="7" horiz-adv-x="1230" 
d="M86 1501h1071v-282l-631 -1125q-53 -94 -161 -94h-220l717 1245h-641q-135 0 -135 135v121z" />
    <glyph glyph-name="eight" unicode="8" horiz-adv-x="1271" 
d="M928 793q106 -25 181 -122.5t75 -238.5q0 -225 -156 -343t-397.5 -118t-396 118t-154.5 343q0 137 76.5 236.5t179.5 124.5q-74 27 -136.5 117.5t-62.5 189.5q0 180 143.5 301t350.5 121t351 -121t144 -301q0 -106 -57 -194t-141 -113zM424 1079q0 -92 59.5 -140
t147.5 -48q90 0 148.5 49t58.5 139t-58.5 138.5t-148.5 48.5q-88 0 -147.5 -50.5t-59.5 -136.5zM631 227q117 0 190.5 54.5t73.5 167.5q0 100 -77 160.5t-187.5 60.5t-186 -59.5t-75.5 -161.5q0 -113 73.5 -167.5t188.5 -54.5z" />
    <glyph glyph-name="nine" unicode="9" horiz-adv-x="1345" 
d="M639 494q-236 -10 -379 127t-143 383q0 248 156.5 387t408.5 139q137 0 248.5 -51.5t180.5 -138.5t102.5 -194.5t22.5 -228t-67 -231.5q-72 -141 -393 -602q-61 -84 -166 -84h-227l365 520q-41 -22 -109 -26zM950 1006q0 117 -81 196.5t-195 79.5q-117 0 -198 -80
t-81 -196q0 -121 80 -204t203 -83q115 0 193.5 84t78.5 203z" />
    <glyph glyph-name="colon" unicode=":" horiz-adv-x="421" 
d="M360 713q0 -61 -44 -105.5t-107.5 -44.5t-106.5 44t-43 106q0 63 43 107t106.5 44t107.5 -44t44 -107zM360 135q0 -63 -44 -107t-107.5 -44t-106.5 44t-43 107q0 61 43 105.5t106.5 44.5t107.5 -44.5t44 -105.5z" />
    <glyph glyph-name="semicolon" unicode=";" horiz-adv-x="436" 
d="M362 713q0 -61 -44 -105.5t-107.5 -44.5t-106.5 44t-43 106q0 63 43 107t106.5 44t107.5 -44t44 -107zM367 160q33 -123 -42 -248t-216 -156l-11 21q-23 47 33 80q72 45 84 127q-61 -2 -107.5 40t-48.5 103q-2 63 40 108.5t104 49.5q57 2 103.5 -33t60.5 -92z" />
    <glyph glyph-name="less" unicode="&#x3c;" horiz-adv-x="1132" 
d="M109 874l911 429v-179q0 -113 -102 -157l-517 -224l517 -221q102 -45 102 -157v-181l-911 428v262z" />
    <glyph glyph-name="equal" unicode="=" horiz-adv-x="1150" 
d="M1036 1118v-117q0 -135 -135 -135h-797v117q0 135 136 135h796zM1036 623v-117q0 -135 -135 -135h-797v116q0 135 136 136h796z" />
    <glyph glyph-name="greater" unicode="&#x3e;" horiz-adv-x="1132" 
d="M109 1303l911 -429v-262l-911 -428v181q0 113 102 157l516 221l-516 224q-102 45 -102 157v179z" />
    <glyph glyph-name="question" unicode="?" horiz-adv-x="1204" 
d="M369 434q-8 180 88 316q41 57 108.5 105t118.5 73.5t90 67.5t39 98q0 166 -233 166q-150 0 -240 -113q-39 -53 -79 -71.5t-95 -0.5l-146 49q12 39 32 81t65 105.5t102 110.5t152.5 82t208.5 35q227 0 373.5 -119t146.5 -311q0 -39 -6.5 -75t-13.5 -63.5t-24.5 -56
t-26.5 -46t-35.5 -40t-36 -33t-42 -30t-39 -23.5t-41 -22.5t-36.5 -18.5q-106 -57 -144 -163q-35 -102 -135 -103h-151zM508 -16q-61 0 -105.5 44t-44.5 107q0 61 44 105.5t106 44.5q63 0 107 -44t44 -106q0 -63 -44 -107t-107 -44z" />
    <glyph glyph-name="at" unicode="@" horiz-adv-x="1734" 
d="M1651 829q0 -229 -80 -375.5t-244 -146.5q-70 0 -132 37t-93 94q-33 -55 -108.5 -90t-159.5 -35q-182 0 -288 115t-106 311q0 188 109.5 305t286.5 117q109 0 192 -61v53h207v-510q0 -72 17.5 -113t70.5 -41q61 0 92 76t31 264q0 504 -586 504q-141 0 -252.5 -50
t-178.5 -134t-100.5 -184.5t-33.5 -208.5q0 -88 12 -165t51 -161t101.5 -143.5t171 -98t252.5 -38.5q100 0 198 38q113 47 187 -24l55 -53q-84 -66 -182.5 -103t-257.5 -37q-387 0 -591 206t-204 579q0 336 216 553t556 217q373 0 582 -179.5t209 -517.5zM1028 795
q0 84 -38 136t-150 52q-98 0 -140.5 -76t-42.5 -168q0 -129 55.5 -183t139.5 -54q70 0 122 47t54 149v97z" />
    <glyph glyph-name="A" unicode="A" 
d="M373 98q-47 -98 -160 -98h-201l766 1499h29l766 -1499h-201q-113 0 -160 98l-67 138h-707zM793 938l-215 -453h428z" />
    <glyph glyph-name="B" unicode="B" horiz-adv-x="1423" 
d="M1262 1090q0 -123 -68 -212.5t-176 -93.5v-2q121 -6 213 -102t92 -252q0 -119 -41 -205t-113.5 -133t-157.5 -68.5t-188 -21.5h-659v1499h637q461 1 461 -409zM451 891h321q203 0 203 186q0 168 -201 168h-323v-354zM803 254q233 0 233 190.5t-239 190.5h-346v-381h352z
" />
    <glyph glyph-name="C" unicode="C" horiz-adv-x="1593" 
d="M1360 1055q-80 -33 -150 43q-139 160 -352 159q-203 0 -346 -150.5t-143 -358.5q0 -211 143 -360.5t346 -149.5q215 0 352 157q66 78 150 43l176 -71q-86 -180 -264 -288t-414 -108q-324 0 -550 224.5t-226 552.5q0 326 227.5 551t548.5 225q238 0 415 -113t263 -285z
" />
    <glyph glyph-name="D" unicode="D" horiz-adv-x="1609" 
d="M164 0v1499h592q356 0 553.5 -200.5t197.5 -549t-195.5 -549t-555.5 -200.5h-592zM451 258h305q463 0 463 490q0 494 -463 493h-305v-983z" />
    <glyph glyph-name="E" unicode="E" horiz-adv-x="1398" 
d="M164 0v1499h1102v-127q0 -127 -136 -127h-681v-375h643v-118q0 -135 -136 -136h-507v-362h679q59 0 98.5 -39t39.5 -98v-117h-1102z" />
    <glyph glyph-name="F" unicode="F" horiz-adv-x="1335" 
d="M1266 1372q0 -127 -136 -127h-679v-401h641v-119q0 -135 -136 -135h-505v-455q0 -135 -136 -135h-151v1499h1102v-127z" />
    <glyph glyph-name="G" unicode="G" horiz-adv-x="1695" 
d="M1612 819q6 -119 0 -192q-25 -291 -225.5 -473.5t-509.5 -182.5q-334 0 -564.5 227.5t-230.5 549t227.5 550t548.5 228.5q199 0 369 -93.5t276 -252.5l-135 -84q-94 -59 -188 28q-147 133 -322 133q-205 0 -348 -146t-143 -363q0 -219 147.5 -364.5t370.5 -145.5
q170 0 286.5 92t135.5 231h-418q-135 0 -135 135v123h858z" />
    <glyph glyph-name="H" unicode="H" horiz-adv-x="1638" 
d="M1190 1499h149q135 0 136 -135v-1364h-150q-135 0 -135 135v463h-741v-598h-150q-135 0 -135 135v1364h149q135 0 136 -135v-512h741v647z" />
    <glyph glyph-name="I" unicode="I" horiz-adv-x="655" 
d="M336 1499q135 0 135 -135v-1364h-152q-135 0 -135 135v1364h152z" />
    <glyph glyph-name="J" unicode="J" horiz-adv-x="1247" 
d="M1090 1499v-967q0 -260 -152 -410.5t-403 -150.5q-174 0 -303.5 82t-194.5 228l147 65q59 23 97 10.5t86 -59.5q70 -66 168 -66q82 0 139 30t82.5 80t36 95t10.5 96v832q0 135 135 135h152z" />
    <glyph glyph-name="K" unicode="K" horiz-adv-x="1478" 
d="M1458 0h-280q-98 0 -166 74l-561 608v-547q0 -135 -136 -135h-151v1499h151q135 0 136 -135v-627l532 682q61 80 166 80h250l-617 -776z" />
    <glyph glyph-name="L" unicode="L" horiz-adv-x="1259" 
d="M451 254h657q135 0 135 -135v-119h-1079v1499h151q135 0 136 -135v-1110z" />
    <glyph glyph-name="M" unicode="M" horiz-adv-x="1839" 
d="M1655 1499h18v-1499h-151q-135 0 -136 135v623l-468 -563l-467 563v-623q0 -135 -136 -135h-151v1499h18l736 -866z" />
    <glyph glyph-name="N" unicode="N" horiz-adv-x="1630" 
d="M1466 0h-30l-987 891v-756q0 -135 -136 -135h-149v1499h31l985 -907v772q0 135 135 135h151v-1499z" />
    <glyph glyph-name="O" unicode="O" horiz-adv-x="1732" 
d="M864 -29q-344 0 -560 224.5t-216 554.5q0 328 216 553t560 225q346 0 562 -224.5t216 -554t-216 -554t-562 -224.5zM864 1260q-205 0 -348 -146.5t-143 -364t143 -364.5t348 -147t348.5 147t143.5 364.5t-143.5 364t-348.5 146.5z" />
    <glyph glyph-name="P" unicode="P" horiz-adv-x="1388" 
d="M786 1499q266 0 422 -148.5t156 -383.5q0 -240 -149.5 -380.5t-430.5 -140.5h-333v-311q0 -135 -136 -135h-151v1499h622zM803 700q125 0 199.5 76t74.5 191q0 119 -77.5 198.5t-206.5 79.5h-342v-545h352z" />
    <glyph glyph-name="Q" unicode="Q" horiz-adv-x="1693" 
d="M1509 254q135 0 136 -135v-121h-746q-399 0 -605 215t-206 549q0 315 223.5 539.5t538.5 224.5q326 0 545 -203t219 -535q0 -172 -72 -320.5t-192 -213.5h159zM373 762q0 -211 135 -348.5t342 -137.5q209 0 343 136.5t134 349.5q0 219 -137 352t-340 133
q-201 0 -339 -137t-138 -348z" />
    <glyph glyph-name="R" unicode="R" horiz-adv-x="1474" 
d="M449 477v-342q0 -135 -136 -135h-149v1499h680q229 0 372.5 -144.5t143.5 -371.5q0 -172 -86 -306t-225 -173l374 -504h-239q-100 0 -164 84l-287 393h-284zM449 727h327q299 0 299 258q0 117 -73.5 188.5t-225.5 71.5h-327v-518z" />
    <glyph glyph-name="S" unicode="S" horiz-adv-x="1392" 
d="M178 307q68 98 184 37q209 -109 381 -108q150 0 218.5 50t68.5 128q0 41 -20.5 72.5t-46 51t-79 37t-89 25.5t-105.5 23q-221 43 -313 84q-258 115 -258 368q0 125 52 217t139 139.5t181.5 69t196.5 21.5q176 0 304 -48.5t255 -144.5l-82 -112q-70 -98 -186 -39
q-162 78 -322 77q-100 0 -175.5 -35.5t-75.5 -115.5q0 -39 23.5 -72t51 -51t85 -36.5t89 -26t99.5 -21.5q10 -2 73.5 -14.5t91 -18.5t90 -25.5t95.5 -39t80 -55t71.5 -77.5t43 -102.5t18.5 -134.5q0 -225 -153.5 -342t-415.5 -117q-211 0 -352.5 58.5t-289.5 169.5z" />
    <glyph glyph-name="T" unicode="T" horiz-adv-x="1269" 
d="M1206 1499v-119q0 -135 -135 -135h-293v-1110q0 -135 -135 -135h-151v1245h-431v119q0 135 136 135h1009z" />
    <glyph glyph-name="U" unicode="U" horiz-adv-x="1613" 
d="M807 -27q-293 0 -468 172t-175 459v895h151q135 0 136 -135v-760q0 -106 35.5 -185t93 -118t115 -57.5t112.5 -18.5t112.5 18.5t115 57.5t93 118t35.5 185v760q0 135 135 135h152v-895q0 -287 -175 -459t-468 -172z" />
    <glyph glyph-name="V" unicode="V" horiz-adv-x="1476" 
d="M1102 1399q47 100 158 100h206l-712 -1499h-17l-710 1499h204q111 0 158 -100l356 -770z" />
    <glyph glyph-name="W" unicode="W" horiz-adv-x="2029" 
d="M1665 1391q39 109 154 108h190l-559 -1499h-29l-405 872l-410 -874h-26l-553 1501h190q115 0 154 -108l254 -715l381 823h18l381 -825z" />
    <glyph glyph-name="X" unicode="X" horiz-adv-x="1544" 
d="M49 0l557 741l-569 758h254q106 0 166 -84l327 -457l328 457q59 84 166 84h252l-567 -758l557 -741h-256q-104 0 -164 84l-316 438l-315 -438q-59 -84 -164 -84h-256z" />
    <glyph glyph-name="Y" unicode="Y" horiz-adv-x="1452" 
d="M1053 1407q53 92 161 92h228l-572 -932v-432q0 -135 -135 -135h-151v567l-568 932h228q109 0 162 -92l321 -545z" />
    <glyph glyph-name="Z" unicode="Z" horiz-adv-x="1437" 
d="M1382 1499v-35l-841 -1210h678q135 0 135 -135v-119h-1311v33l844 1212h-645q-135 0 -136 135v119h1276z" />
    <glyph glyph-name="bracketleft" unicode="[" horiz-adv-x="772" 
d="M590 -68q133 0 133 -135v-121h-555v2165h555v-121q0 -135 -135 -135h-133v-1653h135z" />
    <glyph glyph-name="backslash" unicode="\" horiz-adv-x="1009" 
d="M854 -283q-113 0 -154 109l-698 1882h158q113 0 153 -109l699 -1882h-158z" />
    <glyph glyph-name="bracketright" unicode="]" horiz-adv-x="688" 
d="M578 -324h-555v121q0 135 135 135h133v1653h-133q-135 0 -135 135v121h555v-2165z" />
    <glyph glyph-name="asciicircum" unicode="^" horiz-adv-x="1239" 
d="M1128 764h-180q-109 0 -157 100l-181 387l-180 -387q-49 -100 -158 -100h-180l369 747h299z" />
    <glyph glyph-name="underscore" unicode="_" horiz-adv-x="1368" 
d="M1243 0v-117q0 -135 -135 -135h-999v117q0 135 135 135h999z" />
    <glyph glyph-name="grave" unicode="`" horiz-adv-x="581" 
d="M172 1862q113 49 184 -47l166 -216h-106q-92 0 -168 56l-201 151z" />
    <glyph glyph-name="a" unicode="a" 
d="M373 98q-47 -98 -160 -98h-201l766 1499h29l766 -1499h-201q-113 0 -160 98l-67 138h-707zM793 938l-215 -453h428z" />
    <glyph glyph-name="b" unicode="b" horiz-adv-x="1423" 
d="M1262 1090q0 -123 -68 -212.5t-176 -93.5v-2q121 -6 213 -102t92 -252q0 -119 -41 -205t-113.5 -133t-157.5 -68.5t-188 -21.5h-659v1499h637q461 1 461 -409zM451 891h321q203 0 203 186q0 168 -201 168h-323v-354zM803 254q233 0 233 190.5t-239 190.5h-346v-381h352z
" />
    <glyph glyph-name="c" unicode="c" horiz-adv-x="1593" 
d="M1360 1055q-80 -33 -150 43q-139 160 -352 159q-203 0 -346 -150.5t-143 -358.5q0 -211 143 -360.5t346 -149.5q215 0 352 157q66 78 150 43l176 -71q-86 -180 -264 -288t-414 -108q-324 0 -550 224.5t-226 552.5q0 326 227.5 551t548.5 225q238 0 415 -113t263 -285z
" />
    <glyph glyph-name="d" unicode="d" horiz-adv-x="1609" 
d="M164 0v1499h592q356 0 553.5 -200.5t197.5 -549t-195.5 -549t-555.5 -200.5h-592zM451 258h305q463 0 463 490q0 494 -463 493h-305v-983z" />
    <glyph glyph-name="e" unicode="e" horiz-adv-x="1398" 
d="M164 0v1499h1102v-127q0 -127 -136 -127h-681v-375h643v-118q0 -135 -136 -136h-507v-362h679q59 0 98.5 -39t39.5 -98v-117h-1102z" />
    <glyph glyph-name="f" unicode="f" horiz-adv-x="1335" 
d="M1266 1372q0 -127 -136 -127h-679v-401h641v-119q0 -135 -136 -135h-505v-455q0 -135 -136 -135h-151v1499h1102v-127z" />
    <glyph glyph-name="g" unicode="g" horiz-adv-x="1695" 
d="M1612 819q6 -119 0 -192q-25 -291 -225.5 -473.5t-509.5 -182.5q-334 0 -564.5 227.5t-230.5 549t227.5 550t548.5 228.5q199 0 369 -93.5t276 -252.5l-135 -84q-94 -59 -188 28q-147 133 -322 133q-205 0 -348 -146t-143 -363q0 -219 147.5 -364.5t370.5 -145.5
q170 0 286.5 92t135.5 231h-418q-135 0 -135 135v123h858z" />
    <glyph glyph-name="h" unicode="h" horiz-adv-x="1638" 
d="M1190 1499h149q135 0 136 -135v-1364h-150q-135 0 -135 135v463h-741v-598h-150q-135 0 -135 135v1364h149q135 0 136 -135v-512h741v647z" />
    <glyph glyph-name="i" unicode="i" horiz-adv-x="655" 
d="M336 1499q135 0 135 -135v-1364h-152q-135 0 -135 135v1364h152z" />
    <glyph glyph-name="j" unicode="j" horiz-adv-x="1247" 
d="M1090 1499v-967q0 -260 -152 -410.5t-403 -150.5q-174 0 -303.5 82t-194.5 228l147 65q59 23 97 10.5t86 -59.5q70 -66 168 -66q82 0 139 30t82.5 80t36 95t10.5 96v832q0 135 135 135h152z" />
    <glyph glyph-name="k" unicode="k" horiz-adv-x="1478" 
d="M1458 0h-280q-98 0 -166 74l-561 608v-547q0 -135 -136 -135h-151v1499h151q135 0 136 -135v-627l532 682q61 80 166 80h250l-617 -776z" />
    <glyph glyph-name="l" unicode="l" horiz-adv-x="1259" 
d="M451 254h657q135 0 135 -135v-119h-1079v1499h151q135 0 136 -135v-1110z" />
    <glyph glyph-name="m" unicode="m" horiz-adv-x="1839" 
d="M1655 1499h18v-1499h-151q-135 0 -136 135v623l-468 -563l-467 563v-623q0 -135 -136 -135h-151v1499h18l736 -866z" />
    <glyph glyph-name="n" unicode="n" horiz-adv-x="1630" 
d="M1466 0h-30l-987 891v-756q0 -135 -136 -135h-149v1499h31l985 -907v772q0 135 135 135h151v-1499z" />
    <glyph glyph-name="o" unicode="o" horiz-adv-x="1732" 
d="M864 -29q-344 0 -560 224.5t-216 554.5q0 328 216 553t560 225q346 0 562 -224.5t216 -554t-216 -554t-562 -224.5zM864 1260q-205 0 -348 -146.5t-143 -364t143 -364.5t348 -147t348.5 147t143.5 364.5t-143.5 364t-348.5 146.5z" />
    <glyph glyph-name="p" unicode="p" horiz-adv-x="1388" 
d="M786 1499q266 0 422 -148.5t156 -383.5q0 -240 -149.5 -380.5t-430.5 -140.5h-333v-311q0 -135 -136 -135h-151v1499h622zM803 700q125 0 199.5 76t74.5 191q0 119 -77.5 198.5t-206.5 79.5h-342v-545h352z" />
    <glyph glyph-name="q" unicode="q" horiz-adv-x="1693" 
d="M1509 254q135 0 136 -135v-121h-746q-399 0 -605 215t-206 549q0 315 223.5 539.5t538.5 224.5q326 0 545 -203t219 -535q0 -172 -72 -320.5t-192 -213.5h159zM373 762q0 -211 135 -348.5t342 -137.5q209 0 343 136.5t134 349.5q0 219 -137 352t-340 133
q-201 0 -339 -137t-138 -348z" />
    <glyph glyph-name="r" unicode="r" horiz-adv-x="1474" 
d="M449 477v-342q0 -135 -136 -135h-149v1499h680q229 0 372.5 -144.5t143.5 -371.5q0 -172 -86 -306t-225 -173l374 -504h-239q-100 0 -164 84l-287 393h-284zM449 727h327q299 0 299 258q0 117 -73.5 188.5t-225.5 71.5h-327v-518z" />
    <glyph glyph-name="s" unicode="s" horiz-adv-x="1392" 
d="M178 307q68 98 184 37q209 -109 381 -108q150 0 218.5 50t68.5 128q0 41 -20.5 72.5t-46 51t-79 37t-89 25.5t-105.5 23q-221 43 -313 84q-258 115 -258 368q0 125 52 217t139 139.5t181.5 69t196.5 21.5q176 0 304 -48.5t255 -144.5l-82 -112q-70 -98 -186 -39
q-162 78 -322 77q-100 0 -175.5 -35.5t-75.5 -115.5q0 -39 23.5 -72t51 -51t85 -36.5t89 -26t99.5 -21.5q10 -2 73.5 -14.5t91 -18.5t90 -25.5t95.5 -39t80 -55t71.5 -77.5t43 -102.5t18.5 -134.5q0 -225 -153.5 -342t-415.5 -117q-211 0 -352.5 58.5t-289.5 169.5z" />
    <glyph glyph-name="t" unicode="t" horiz-adv-x="1269" 
d="M1206 1499v-119q0 -135 -135 -135h-293v-1110q0 -135 -135 -135h-151v1245h-431v119q0 135 136 135h1009z" />
    <glyph glyph-name="u" unicode="u" horiz-adv-x="1613" 
d="M807 -27q-293 0 -468 172t-175 459v895h151q135 0 136 -135v-760q0 -106 35.5 -185t93 -118t115 -57.5t112.5 -18.5t112.5 18.5t115 57.5t93 118t35.5 185v760q0 135 135 135h152v-895q0 -287 -175 -459t-468 -172z" />
    <glyph glyph-name="v" unicode="v" horiz-adv-x="1476" 
d="M1102 1399q47 100 158 100h206l-712 -1499h-17l-710 1499h204q111 0 158 -100l356 -770z" />
    <glyph glyph-name="w" unicode="w" horiz-adv-x="2029" 
d="M1665 1391q39 109 154 108h190l-559 -1499h-29l-405 872l-410 -874h-26l-553 1501h190q115 0 154 -108l254 -715l381 823h18l381 -825z" />
    <glyph glyph-name="x" unicode="x" horiz-adv-x="1544" 
d="M49 0l557 741l-569 758h254q106 0 166 -84l327 -457l328 457q59 84 166 84h252l-567 -758l557 -741h-256q-104 0 -164 84l-316 438l-315 -438q-59 -84 -164 -84h-256z" />
    <glyph glyph-name="y" unicode="y" horiz-adv-x="1452" 
d="M1053 1407q53 92 161 92h228l-572 -932v-432q0 -135 -135 -135h-151v567l-568 932h228q109 0 162 -92l321 -545z" />
    <glyph glyph-name="z" unicode="z" horiz-adv-x="1437" 
d="M1382 1499v-35l-841 -1210h678q135 0 135 -135v-119h-1311v33l844 1212h-645q-135 0 -136 135v119h1276z" />
    <glyph glyph-name="braceleft" unicode="{" horiz-adv-x="843" 
d="M551 25q49 -57 135 -84q61 -20 91 -52t30 -92v-151h-2q-29 0 -69 5t-113.5 22.5t-149.5 62.5t-131 112q-43 51 -69.5 114t-36 141.5t-10.5 112.5t-1 110q0 25 1 65.5t1 57t-2 45t-7 40t-13 29t-22.5 25.5t-35 16t-47.5 12v283q20 2 37 8t30 12.5t22.5 20.5t15.5 23.5
t10 30t6 31.5t3 38t1 39v44v44q0 98 2 150.5t31 157t84 169.5q74 88 190.5 138t174 56.5t100.5 6.5v-150q0 -109 -123 -145q-86 -27 -133 -82q-57 -70 -51 -295q2 -66 -4.5 -138.5t-37 -168.5t-83.5 -131q43 -47 69.5 -97.5t38 -120t13.5 -101t4 -120.5q0 -6 1 -40.5t1 -54
t3 -53.5t8 -57.5t15.5 -48t22.5 -40.5z" />
    <glyph glyph-name="bar" unicode="|" horiz-adv-x="585" 
d="M268 1712q53 0 90 -36t37 -99v-1794h-71q-135 0 -136 135v1794h80z" />
    <glyph glyph-name="braceright" unicode="}" horiz-adv-x="843" 
d="M289 25q12 16 22.5 40.5t15.5 48t8 57.5t3 53.5t1 54t1 40.5q2 88 4 120t13.5 101.5t38 120t69.5 97.5q-53 35 -84 131t-37 168.5t-4 138.5q6 229 -51 295q-47 55 -133 82q-123 37 -123 145v150q43 0 100 -6.5t174 -56.5t191 -138q55 -66 83.5 -170t30.5 -156.5t2 -150.5
v-44v-44t1 -39t3.5 -38t6.5 -31.5t10 -30t15 -23.5t22.5 -20.5t30 -12.5t36.5 -8v-283q-27 -4 -47 -12t-34.5 -16t-22.5 -25.5t-13.5 -29t-7.5 -40t-2 -45t1 -57.5t1 -65q0 -72 -2 -109t-11 -113.5t-34.5 -140t-68.5 -115.5q-55 -68 -131 -112.5t-150 -62t-114 -22.5t-68 -5
h-2v149q0 123 49 129q144 21 207 101z" />
    <glyph glyph-name="asciitilde" unicode="~" horiz-adv-x="1175" 
d="M774 672q-90 0 -206.5 68.5t-178.5 68.5q-49 0 -88 -35q-18 -18 -27.5 -25.5t-29 -19.5t-30.5 -9t-34 5l-90 33q23 82 97.5 152.5t189.5 70.5q76 0 141.5 -31.5t119.5 -63.5t103 -32q72 0 117 49q57 63 119 43l90 -31q-29 -88 -105.5 -165.5t-187.5 -77.5z" />
    <glyph glyph-name="exclamdown" unicode="&#xa1;" horiz-adv-x="600" 
d="M150 1362q0 63 44 107t107 44q61 0 105.5 -44t44.5 -107q0 -61 -44.5 -105.5t-105.5 -44.5q-63 0 -107 44.5t-44 105.5zM145 0l45 930q6 131 138 131h73l45 -922q2 -66 -32.5 -102.5t-100.5 -36.5h-168z" />
    <glyph glyph-name="cent" unicode="&#xa2;" horiz-adv-x="1267" 
d="M690 387q121 0 197 70q88 82 184 45l150 -62q-135 -233 -396 -293v-172h-151q-135 0 -135 136v41q-201 51 -331 217t-130 376.5t130 376.5t331 217v187h151q135 0 135 -135v-48q129 -29 233.5 -108.5t168.5 -194.5l-150 -61q-94 -37 -184 45q-84 80 -203 80
q-143 0 -240.5 -99.5t-97.5 -259.5q0 -156 98.5 -257t239.5 -101z" />
    <glyph glyph-name="sterling" unicode="&#xa3;" horiz-adv-x="1259" 
d="M545 635q16 -150 -17.5 -252t-85.5 -133h590q135 0 135 -135v-115h-1061v246q127 51 166 198q20 76 -8 191h-153v225h122l-18 150q-20 227 125 370.5t379 143.5q113 0 206 -40t151.5 -104.5t93 -126t55.5 -125.5l-148 -47q-55 -18 -93 1.5t-77 76.5q-80 111 -188 111
q-242 0 -225 -238q10 -119 18 -172h434v-225h-401z" />
    <glyph glyph-name="yen" unicode="&#xa5;" horiz-adv-x="1253" 
d="M1231 1501l-406 -700h283v-49q0 -135 -135 -136h-205v-176h340v-47q0 -135 -135 -135h-205v-258h-287v258h-321v47q0 135 135 135h186v176h-321v50q0 135 135 135h131l-408 700h226q106 0 159 -92l222 -383l221 383q53 92 160 92h225z" />
    <glyph glyph-name="brokenbar" unicode="&#xa6;" horiz-adv-x="585" 
d="M188 918v794h72q135 0 135 -135v-659h-207zM395 -217h-71q-135 0 -136 135v657h207v-792z" />
    <glyph glyph-name="section" unicode="&#xa7;" horiz-adv-x="1085" 
d="M836 537q63 -16 104 -92t41 -148q0 -166 -103.5 -246t-277.5 -80q-270 0 -510 168l43 60q70 98 186 39q135 -66 259 -66q80 0 127 27.5t47 76.5q0 35 -17.5 60.5t-57.5 42t-73 25t-92 20.5q-199 41 -283 92q-135 84 -135 234q0 176 185 241q-82 23 -133.5 88.5t-51.5 141
t30 134t72 89.5t100 50t104 24.5t98 5.5q223 0 430 -144l-51 -67q-70 -90 -187 -37q-104 47 -211 47q-154 0 -153 -100q0 -18 9 -35t27.5 -30t36 -22.5t47 -17.5t45 -13t47 -11.5t37.5 -8.5q51 -12 62.5 -15t69 -19.5t81 -29.5t68.5 -41t65.5 -56.5t39 -72.5t18.5 -95
q0 -82 -41 -141.5t-102 -77.5zM637 596q55 -4 97 29.5t46 93.5q4 70 -76.5 129t-224.5 70q-66 4 -126 -23t-66 -98q-8 -90 91 -139.5t259 -61.5z" />
    <glyph glyph-name="dieresis" unicode="&#xa8;" horiz-adv-x="847" 
d="M76 1734.5q0 59.5 41 99.5t100 40t98 -40t39 -99.5t-39 -98.5t-98 -39t-100 39t-41 98.5zM494 1734.5q0 59.5 39.5 99.5t99 40t99.5 -40t40 -99.5t-40 -98.5t-99.5 -39t-99 39t-39.5 98.5z" />
    <glyph glyph-name="copyright" unicode="&#xa9;" horiz-adv-x="1691" 
d="M846 -25q-319 0 -544.5 226.5t-225.5 544t225 544t545 226.5q317 0 543.5 -226.5t226.5 -544t-226.5 -544t-543.5 -226.5zM845.5 1321q-237.5 0 -407.5 -169t-170 -406.5t170 -407.5t407.5 -170t406.5 170t169 407.5t-169 406.5t-406.5 169zM1206 547
q-53 -96 -149 -155.5t-211 -59.5q-170 0 -292 121.5t-122 291.5t122 291t292 121q119 0 216 -60.5t150 -162.5l-75 -31q-61 -25 -125 33q-72 61 -166 61q-104 0 -179 -73.5t-75 -178t74.5 -178t179.5 -73.5q90 0 158 55q66 53 124 29z" />
    <glyph glyph-name="ordfeminine" unicode="&#xaa;" horiz-adv-x="745" 
d="M301 885q-88 0 -150.5 55t-62.5 141q0 111 86 162t215 47q53 0 94 -8q-2 57 -23.5 83t-84.5 28q-70 2 -121 -17q-82 -29 -121 39l-20 35q117 78 262 78q131 0 196 -78q61 -68 62 -199v-352h-90q-57 0 -58 53q-59 -67 -184 -67zM338 1014q104 0 135 59q12 23 10 98
q-59 6 -112 5q-27 -2 -43.5 -4.5t-45 -10.5t-42 -28.5t-9.5 -51.5q9 -67 107 -67zM98 633v49q0 90 90 90h445v-49q0 -90 -90 -90h-445z" />
    <glyph glyph-name="guillemotleft" unicode="&#xab;" horiz-adv-x="1388" 
d="M711 279h-191q-109 0 -164 88l-245 385l247 389q57 90 164 90h187l-318 -479zM1276 279h-193q-106 0 -161 88l-248 385l250 391q55 88 163 88h185l-316 -479z" />
    <glyph glyph-name="logicalnot" unicode="&#xac;" horiz-adv-x="1206" 
d="M1090 1030v-604h-152q-135 0 -135 135v217h-570q-135 0 -135 135v117h992z" />
    <glyph glyph-name="uni00AD" unicode="&#xad;" horiz-adv-x="1705" 
 />
    <glyph glyph-name="registered" unicode="&#xae;" horiz-adv-x="1693" 
d="M842 -25q-317 0 -543.5 226.5t-226.5 546.5q0 317 226 543.5t544 226.5q319 0 545.5 -226.5t226.5 -543.5q0 -319 -226.5 -546t-545.5 -227zM841.5 1325q-237.5 0 -407.5 -170t-170 -407.5t170 -407.5t407.5 -170t407.5 170t170 407.5t-170 407.5t-407.5 170zM561 395
v709h336q115 0 186.5 -71.5t71.5 -186.5q0 -162 -137 -232l164 -219h-142q-66 0 -108 56l-103 135h-100v-101q0 -90 -90 -90h-78zM729 756h168q16 0 33.5 4t37 25.5t19.5 60.5q0 90 -90 90h-168v-180z" />
    <glyph glyph-name="macron" unicode="&#xaf;" horiz-adv-x="772" 
d="M696 1831v-74q0 -49 -32.5 -82t-81.5 -33h-516v74q0 49 32.5 82t81.5 33h516z" />
    <glyph glyph-name="degree" unicode="&#xb0;" horiz-adv-x="688" 
d="M344.5 1239q-106.5 0 -183.5 77t-77 183.5t77 183t183.5 76.5t182 -75.5t75.5 -184t-75.5 -184.5t-182 -76zM344 1597q-41 0 -70.5 -28.5t-29.5 -69.5t29.5 -69.5t70.5 -28.5t69.5 28.5t28.5 69.5t-28.5 69.5t-69.5 28.5z" />
    <glyph glyph-name="plusminus" unicode="&#xb1;" horiz-adv-x="1124" 
d="M700 967h283v-113q0 -135 -135 -135h-148v-311h-155q-135 0 -135 135v176h-283v112q0 135 135 136h148v313h155q135 0 135 -135v-178zM983 127q0 -127 -135 -127h-721v117q0 135 135 135h721v-125z" />
    <glyph glyph-name="uni00B2" unicode="&#xb2;" horiz-adv-x="815" 
d="M629 897q113 0 112 -113v-51h-675v187q31 25 161.5 136t184.5 154q82 66 106.5 111t24.5 100q0 72 -45 105t-107 33q-74 0 -131 -80t-135 -52l-76 27q16 55 52 111.5t114 107.5t176 51q162 0 250 -91t88 -212q0 -104 -50 -180t-157 -168q-27 -23 -107.5 -89t-105.5 -87
h320z" />
    <glyph glyph-name="uni00B3" unicode="&#xb3;" horiz-adv-x="786" 
d="M551 1217q162 -47 162 -228q0 -133 -94.5 -207.5t-235.5 -74.5q-84 0 -150.5 27.5t-105.5 73.5t-60.5 86t-33.5 83l63 20q76 25 146 -55q57 -70 141 -70q143 2 143 129q0 147 -245 144v43q0 98 112 115q133 23 133 129q0 57 -37.5 92t-105.5 35q-92 0 -145 -62
q-37 -45 -67 -60.5t-75 -0.5l-63 18q12 43 33.5 83t60.5 86t104.5 73.5t149.5 27.5q168 0 250 -85t82 -197q0 -98 -43 -146t-119 -79z" />
    <glyph glyph-name="acute" unicode="&#xb4;" horiz-adv-x="602" 
d="M61 1599l166 216q72 96 185 47l127 -56l-201 -151q-76 -55 -168 -56h-109z" />
    <glyph glyph-name="paragraph" unicode="&#xb6;" horiz-adv-x="1114" 
d="M612 0h-57q-135 0 -135 135v518q-162 0 -265.5 114t-103.5 288q0 242 128 344t403 102h370v-1501h-57q-135 0 -135 135v1251h-148v-1386z" />
    <glyph glyph-name="periodcentered" unicode="&#xb7;" horiz-adv-x="421" 
d="M362 856q0 -63 -44 -107t-107 -44q-61 0 -105.5 44t-44.5 107q0 61 44.5 105.5t105.5 44.5q63 0 107 -44.5t44 -105.5z" />
    <glyph glyph-name="cedilla" unicode="&#xb8;" horiz-adv-x="471" 
d="M311 -57q113 -39 105 -164q-10 -170 -209 -170q-49 0 -92 14.5t-62 28.5l-16 14l10 23q33 66 96 51q25 -6 64 -6q27 0 45 15t18 42q0 45 -67 45q-27 0 -53.5 -6t-38.5 -14l-15 -6l-28 47l65 166h131l-35 -74q39 10 82 -6z" />
    <glyph glyph-name="uni00B9" unicode="&#xb9;" horiz-adv-x="585" 
d="M-8 1386l338 322h119v-977h-84q-45 0 -74 28.5t-29 74.5v552l-59 -57q-80 -80 -160 4z" />
    <glyph glyph-name="ordmasculine" unicode="&#xba;" horiz-adv-x="808" 
d="M401.5 879q-133.5 0 -227.5 95t-94 228t94 227.5t227.5 94.5t228.5 -94.5t95 -227.5t-95 -228t-228.5 -95zM401 1397q-78 0 -131 -53.5t-53 -141.5q0 -90 53.5 -142t130.5 -52q80 0 132.5 52t52.5 142q0 88 -52.5 141.5t-132.5 53.5zM688 702q0 -70 -90 -69h-481v49
q0 90 90 90h481v-70z" />
    <glyph glyph-name="guillemotright" unicode="&#xbb;" horiz-adv-x="1388" 
d="M111 279l319 473l-315 479h184q109 0 164 -88l250 -391l-248 -385q-55 -88 -162 -88h-192zM676 279l319 473l-317 479h186q106 0 164 -90l248 -389l-246 -385q-55 -88 -164 -88h-190z" />
    <glyph glyph-name="onequarter" unicode="&#xbc;" horiz-adv-x="1789" 
d="M-8 1182l338 321h119v-977h-84q-45 0 -74 29t-29 74v553l-59 -58q-84 -78 -160 4zM268 0l850 1425q43 76 133 76h101l-848 -1425q-43 -76 -133 -76h-103zM909 217v160l512 600h142v-596h6q113 0 112 -113v-51h-118v-217h-74q-113 0 -113 113v104h-467zM1147 381h229v281z
" />
    <glyph glyph-name="onehalf" unicode="&#xbd;" horiz-adv-x="1789" 
d="M-8 1182l338 321h119v-977h-84q-45 0 -74 29t-29 74v553l-59 -58q-84 -78 -160 4zM504 76q-43 -76 -133 -76h-103l850 1425q43 76 133 76h101zM1616 164q113 0 113 -113v-51h-676v186q41 33 179 150t167 141q82 66 106.5 111t24.5 100q0 72 -45 104.5t-107 32.5
q-74 0 -131 -79.5t-135 -51.5l-76 27q16 55 52 111.5t114 107.5t176 51q162 0 250 -91t88 -212q0 -104 -51 -183t-156 -165q-27 -23 -107.5 -89.5t-105.5 -86.5h320z" />
    <glyph glyph-name="threequarters" unicode="&#xbe;" horiz-adv-x="1961" 
d="M541 1001q162 -47 161 -227q0 -133 -94 -207.5t-235 -74.5q-84 0 -150.5 27.5t-105.5 73.5t-60.5 86t-33.5 83l63 20q76 25 145 -55q57 -70 142 -70q143 2 143 129q0 147 -246 144v43q0 98 113 114q133 23 133 130q0 57 -38 91.5t-105 34.5q-92 0 -146 -61
q-37 -45 -66.5 -60.5t-74.5 -0.5l-63 18q12 43 33.5 83t60.5 86t104.5 73.5t149.5 27.5q168 0 249.5 -85t81.5 -197q0 -98 -42.5 -146.5t-118.5 -79.5zM709 76q-43 -76 -134 -76h-102l850 1425q43 76 133 76h100zM1767 381h7q113 0 112 -113v-51h-119v-217h-73
q-113 0 -113 113v104h-467v160l512 600h141v-596zM1581 381v281l-229 -281h229z" />
    <glyph glyph-name="questiondown" unicode="&#xbf;" horiz-adv-x="1196" 
d="M678 1518q61 0 105 -44t44 -108q0 -61 -44 -105t-105 -44q-63 0 -107.5 44t-44.5 105q0 63 44.5 107.5t107.5 44.5zM817 1067q8 -180 -102 -336q-37 -51 -100.5 -94t-113.5 -67.5t-89 -65.5t-39 -96q0 -166 233 -166q150 0 240 112q39 53 79 71.5t95 0.5l145 -49
q-12 -39 -31.5 -81t-64.5 -105.5t-102.5 -110.5t-152.5 -82t-208 -35q-227 0 -373.5 119t-146.5 311q0 90 25.5 160t73.5 116t87 71.5t97 56.5q14 6 20 10q106 57 133 135q23 66 54.5 95.5t89.5 29.5h151z" />
    <glyph glyph-name="Agrave" unicode="&#xc0;" 
d="M537 1853q113 49 184 -47l166 -215h-107q-92 0 -168 56l-200 151zM373 98q-47 -98 -160 -98h-201l766 1499h29l766 -1499h-201q-113 0 -160 98l-67 138h-707zM793 938l-215 -453h428z" />
    <glyph glyph-name="Aacute" unicode="&#xc1;" 
d="M690 1591l166 215q72 96 184 47l127 -55l-200 -151q-76 -55 -168 -56h-109zM373 98q-47 -98 -160 -98h-201l766 1499h29l766 -1499h-201q-113 0 -160 98l-67 138h-707zM793 938l-215 -453h428z" />
    <glyph glyph-name="Acircumflex" unicode="&#xc2;" 
d="M422 1573l250 315h239l252 -315h-147q-90 0 -139 57l-89 103l-79 -101q-45 -59 -140 -59h-147zM373 98q-47 -98 -160 -98h-201l766 1499h29l766 -1499h-201q-113 0 -160 98l-67 138h-707zM793 938l-215 -453h428z" />
    <glyph glyph-name="Atilde" unicode="&#xc3;" 
d="M944 1554q-72 0 -123 34t-90 68t-80 34q-37 0 -67 -39q-51 -70 -115 -52l-86 25q23 88 88.5 167t167.5 81q74 0 127 -34t92 -67.5t78 -33.5q31 0 57 26q61 61 119 41l88 -32q-35 -94 -102.5 -156t-153.5 -62zM373 98q-47 -98 -160 -98h-201l766 1499h29l766 -1499h-201
q-113 0 -160 98l-67 138h-707zM793 938l-215 -453h428z" />
    <glyph glyph-name="Adieresis" unicode="&#xc4;" 
d="M444 1706q0 59 41 99t100.5 40t98.5 -40t39 -99t-39 -98t-98.5 -39t-100.5 39t-41 98zM862 1706q0 59 40 99t99.5 40t99.5 -40t40 -99t-40 -98t-99.5 -39t-99.5 39t-40 98zM373 98q-47 -98 -160 -98h-201l766 1499h29l766 -1499h-201q-113 0 -160 98l-67 138h-707z
M793 938l-215 -453h428z" />
    <glyph glyph-name="Aring" unicode="&#xc5;" 
d="M12 0l736 1440q-76 16 -125.5 76.5t-49.5 140.5q0 90 64.5 154.5t157.5 64.5q90 0 154.5 -64.5t64.5 -154.5q0 -80 -51.5 -141.5t-126.5 -75.5l737 -1440h-311l-117 236h-707l-114 -236h-312zM795 1739q-35 0 -59.5 -23.5t-24.5 -58.5t24.5 -59.5t59 -24.5t58.5 24.5
t24 59.5t-24.5 58.5t-57.5 23.5zM578 485h428l-213 453z" />
    <glyph glyph-name="AE" unicode="&#xc6;" horiz-adv-x="2174" 
d="M-25 0l990 1501h1077v-129q0 -129 -135 -129h-682v-371h643v-127q0 -135 -135 -135h-508v-350h680q59 0 98 -39t39 -98v-123h-1104v252h-473l-109 -164q-55 -88 -161 -88h-220zM631 506h307v485z" />
    <glyph glyph-name="Ccedilla" unicode="&#xc7;" horiz-adv-x="1593" 
d="M1210 395q66 78 150 43l176 -71q-80 -170 -246 -276.5t-383 -117.5l-28 -63q39 10 82 -6q113 -39 104 -164q-10 -170 -209 -170q-49 0 -92 14.5t-59 28.5l-19 14l10 23q33 66 97 51q25 -6 63 -6q27 0 45.5 15.5t18.5 41.5q0 45 -68 45q-27 0 -53.5 -7t-40.5 -13l-13 -6
l-28 47l61 157q-297 29 -496.5 247t-199.5 526q0 326 227.5 551t548.5 225q238 0 415 -113t263 -285l-176 -71q-80 -33 -150 43q-139 160 -352 159q-203 0 -346 -150.5t-143 -358.5q0 -211 143 -360.5t346 -149.5q215 -1 352 157z" />
    <glyph glyph-name="Egrave" unicode="&#xc8;" horiz-adv-x="1398" 
d="M537 1853q113 49 184 -47l166 -215h-107q-92 0 -168 56l-200 151zM164 0v1499h1102v-127q0 -127 -136 -127h-681v-375h643v-118q0 -135 -136 -136h-507v-362h679q59 0 98.5 -39t39.5 -98v-117h-1102z" />
    <glyph glyph-name="Eacute" unicode="&#xc9;" horiz-adv-x="1398" 
d="M522 1591l166 215q72 96 184 47l127 -55l-200 -151q-76 -55 -168 -56h-109zM164 0v1499h1102v-127q0 -127 -136 -127h-681v-375h643v-118q0 -135 -136 -136h-507v-362h679q59 0 98.5 -39t39.5 -98v-117h-1102z" />
    <glyph glyph-name="Ecircumflex" unicode="&#xca;" horiz-adv-x="1398" 
d="M350 1573l250 315h240l252 -315h-148q-90 0 -139 57l-88 103l-80 -101q-45 -59 -139 -59h-148zM164 0v1499h1102v-127q0 -127 -136 -127h-681v-375h643v-118q0 -135 -136 -136h-507v-362h679q59 0 98.5 -39t39.5 -98v-117h-1102z" />
    <glyph glyph-name="Edieresis" unicode="&#xcb;" horiz-adv-x="1398" 
d="M373 1706q0 59 41 99t100 40t98 -40t39 -99t-39 -98t-98 -39t-100 39t-41 98zM791 1706q0 59 39.5 99t99 40t99.5 -40t40 -99t-40 -98t-99.5 -39t-99 39t-39.5 98zM164 0v1499h1102v-127q0 -127 -136 -127h-681v-375h643v-118q0 -135 -136 -136h-507v-362h679
q59 0 98.5 -39t39.5 -98v-117h-1102z" />
    <glyph glyph-name="Igrave" unicode="&#xcc;" horiz-adv-x="655" 
d="M123 1853q113 49 184 -47l166 -215h-106q-92 0 -168 56l-201 151zM336 1499q135 0 135 -135v-1364h-152q-135 0 -135 135v1364h152z" />
    <glyph glyph-name="Iacute" unicode="&#xcd;" horiz-adv-x="655" 
d="M182 1591l166 215q72 96 184 47l127 -55l-200 -151q-76 -55 -168 -56h-109zM336 1499q135 0 135 -135v-1364h-152q-135 0 -135 135v1364h152z" />
    <glyph glyph-name="Icircumflex" unicode="&#xce;" horiz-adv-x="655" 
d="M-45 1573l250 315h239l252 -315h-147q-90 0 -139 57l-88 103l-80 -101q-45 -59 -140 -59h-147zM336 1499q135 0 135 -135v-1364h-152q-135 0 -135 135v1364h152z" />
    <glyph glyph-name="Idieresis" unicode="&#xcf;" horiz-adv-x="655" 
d="M-18 1706q0 59 40.5 99t100 40t98.5 -40t39 -99t-39 -98t-98.5 -39t-100 39t-40.5 98zM399 1706q0 59 40 99t99.5 40t99.5 -40t40 -99t-40 -98t-99.5 -39t-99.5 39t-40 98zM336 1499q135 0 135 -135v-1364h-152q-135 0 -135 135v1364h152z" />
    <glyph glyph-name="Eth" unicode="&#xd0;" horiz-adv-x="1609" 
d="M59 743q0 53 30 89t75 36v631h592q356 0 553.5 -200.5t197.5 -549t-195.5 -549t-555.5 -200.5h-592v616h-105v127zM451 258h305q463 0 463 490q0 494 -463 493h-305v-373h319v-114q0 -59 -39 -98.5t-98 -39.5h-182v-358z" />
    <glyph glyph-name="Ntilde" unicode="&#xd1;" horiz-adv-x="1630" 
d="M965 1554q-72 0 -123 34t-90 68t-80 34q-37 0 -68 -39q-51 -70 -115 -52l-86 25q23 88 88.5 167t167.5 81q74 0 127.5 -34t92.5 -67.5t77 -33.5q31 0 58 26q61 61 119 41l88 -32q-35 -94 -102.5 -156t-153.5 -62zM1466 0h-30l-987 891v-756q0 -135 -136 -135h-149v1499
h31l985 -907v772q0 135 135 135h151v-1499z" />
    <glyph glyph-name="Ograve" unicode="&#xd2;" horiz-adv-x="1732" 
d="M678 1853q113 49 184 -47l166 -215h-106q-92 0 -168 56l-201 151zM864 -29q-344 0 -560 224.5t-216 554.5q0 328 216 553t560 225q346 0 562 -224.5t216 -554t-216 -554t-562 -224.5zM864 1260q-205 0 -348 -146.5t-143 -364t143 -364.5t348 -147t348.5 147t143.5 364.5
t-143.5 364t-348.5 146.5z" />
    <glyph glyph-name="Oacute" unicode="&#xd3;" horiz-adv-x="1732" 
d="M682 1591l166 215q72 96 184 47l127 -55l-201 -151q-76 -55 -167 -56h-109zM864 -29q-344 0 -560 224.5t-216 554.5q0 328 216 553t560 225q346 0 562 -224.5t216 -554t-216 -554t-562 -224.5zM864 1260q-205 0 -348 -146.5t-143 -364t143 -364.5t348 -147t348.5 147
t143.5 364.5t-143.5 364t-348.5 146.5z" />
    <glyph glyph-name="Ocircumflex" unicode="&#xd4;" horiz-adv-x="1732" 
d="M496 1573l249 315h240l252 -315h-147q-90 0 -140 57l-88 103l-80 -101q-45 -59 -139 -59h-147zM864 -29q-344 0 -560 224.5t-216 554.5q0 328 216 553t560 225q346 0 562 -224.5t216 -554t-216 -554t-562 -224.5zM864 1260q-205 0 -348 -146.5t-143 -364t143 -364.5
t348 -147t348.5 147t143.5 364.5t-143.5 364t-348.5 146.5z" />
    <glyph glyph-name="Otilde" unicode="&#xd5;" horiz-adv-x="1732" 
d="M1018 1554q-72 0 -123 34t-90 68t-80 34q-37 0 -68 -39q-51 -70 -114 -52l-86 25q23 88 88 167t168 81q74 0 127 -34t92 -67.5t78 -33.5q31 0 57 26q61 61 119 41l88 -32q-35 -94 -102.5 -156t-153.5 -62zM864 -29q-344 0 -560 224.5t-216 554.5q0 328 216 553t560 225
q346 0 562 -224.5t216 -554t-216 -554t-562 -224.5zM864 1260q-205 0 -348 -146.5t-143 -364t143 -364.5t348 -147t348.5 147t143.5 364.5t-143.5 364t-348.5 146.5z" />
    <glyph glyph-name="Odieresis" unicode="&#xd6;" horiz-adv-x="1732" 
d="M514 1706q0 59 41 99t100.5 40t98.5 -40t39 -99t-39 -98t-98.5 -39t-100.5 39t-41 98zM932 1706q0 59 40 99t99 40t99 -40t40 -99t-40 -98t-99 -39t-99 39t-40 98zM864 -29q-344 0 -560 224.5t-216 554.5q0 328 216 553t560 225q346 0 562 -224.5t216 -554t-216 -554
t-562 -224.5zM864 1260q-205 0 -348 -146.5t-143 -364t143 -364.5t348 -147t348.5 147t143.5 364.5t-143.5 364t-348.5 146.5z" />
    <glyph glyph-name="multiply" unicode="&#xd7;" horiz-adv-x="1032" 
d="M328 778l-174 174q-92 96 0 193l88 88l268 -270l174 174q96 96 193 0l88 -88l-271 -271l174 -172q96 -96 0 -192l-88 -88l-270 268l-172 -172q-98 -98 -193 0l-86 88z" />
    <glyph glyph-name="Oslash" unicode="&#xd8;" horiz-adv-x="1732" 
d="M864 -29q-233 0 -426 127l-39 -45q-41 -45 -95 -48t-99 36l-58 51l132 148q-190 217 -191 510q0 328 216 553t560 225q238 0 436 -133l37 43q39 45 94.5 48t100.5 -38l57 -49l-131 -148q184 -221 184 -501q0 -330 -216 -554.5t-562 -224.5zM864 1260q-201 0 -346 -153
t-145 -357q0 -164 94 -297l647 733q-121 74 -250 74zM864 238q203 0 347.5 152.5t144.5 359.5q0 154 -88 286l-647 -731q112 -67 243 -67z" />
    <glyph glyph-name="Ugrave" unicode="&#xd9;" horiz-adv-x="1613" 
d="M612 1853q113 49 185 -47l166 -215h-107q-92 0 -168 56l-201 151zM807 -27q-293 0 -468 172t-175 459v895h151q135 0 136 -135v-760q0 -106 35.5 -185t93 -118t115 -57.5t112.5 -18.5t112.5 18.5t115 57.5t93 118t35.5 185v760q0 135 135 135h152v-895q0 -287 -175 -459
t-468 -172z" />
    <glyph glyph-name="Uacute" unicode="&#xda;" horiz-adv-x="1613" 
d="M647 1591l166 215q72 96 184 47l127 -55l-200 -151q-76 -55 -168 -56h-109zM807 -27q-293 0 -468 172t-175 459v895h151q135 0 136 -135v-760q0 -106 35.5 -185t93 -118t115 -57.5t112.5 -18.5t112.5 18.5t115 57.5t93 118t35.5 185v760q0 135 135 135h152v-895
q0 -287 -175 -459t-468 -172z" />
    <glyph glyph-name="Ucircumflex" unicode="&#xdb;" horiz-adv-x="1613" 
d="M438 1573l250 315h240l252 -315h-148q-90 0 -139 57l-88 103l-80 -101q-45 -59 -139 -59h-148zM807 -27q-293 0 -468 172t-175 459v895h151q135 0 136 -135v-760q0 -106 35.5 -185t93 -118t115 -57.5t112.5 -18.5t112.5 18.5t115 57.5t93 118t35.5 185v760q0 135 135 135
h152v-895q0 -287 -175 -459t-468 -172z" />
    <glyph glyph-name="Udieresis" unicode="&#xdc;" horiz-adv-x="1613" 
d="M459 1706q0 59 41 99t100 40t98 -40t39 -99t-39 -98t-98 -39t-100 39t-41 98zM877 1706q0 59 39.5 99t99 40t99.5 -40t40 -99t-40 -98t-99.5 -39t-99 39t-39.5 98zM807 -27q-293 0 -468 172t-175 459v895h151q135 0 136 -135v-760q0 -106 35.5 -185t93 -118t115 -57.5
t112.5 -18.5t112.5 18.5t115 57.5t93 118t35.5 185v760q0 135 135 135h152v-895q0 -287 -175 -459t-468 -172z" />
    <glyph glyph-name="Yacute" unicode="&#xdd;" horiz-adv-x="1452" 
d="M526 1591l166 215q72 96 185 47l127 -55l-201 -151q-76 -55 -168 -56h-109zM1053 1407q53 92 161 92h228l-572 -932v-432q0 -135 -135 -135h-151v567l-568 932h228q109 0 162 -92l321 -545z" />
    <glyph glyph-name="Thorn" unicode="&#xde;" horiz-adv-x="1456" 
d="M831 1282q219 0 376 -156.5t157 -376t-156.5 -376t-376.5 -156.5h-380v-217h-150q-59 0 -98 39t-39 98v1362h149q59 0 98.5 -39t39.5 -98v-80h380zM784 473q154 0 223.5 80t69.5 196.5t-69.5 196.5t-223.5 80h-333v-553h333z" />
    <glyph glyph-name="germandbls" unicode="&#xdf;" horiz-adv-x="2785" 
d="M178 307q68 98 184 37q209 -109 381 -108q150 0 218.5 50t68.5 128q0 41 -20.5 72.5t-46 51t-79 37t-89 25.5t-105.5 23q-221 43 -313 84q-258 115 -258 368q0 125 52 217t139 139.5t181.5 69t196.5 21.5q176 0 304 -48.5t255 -144.5l-82 -112q-70 -98 -186 -39
q-162 78 -322 77q-100 0 -175.5 -35.5t-75.5 -115.5q0 -39 23.5 -72t51 -51t85 -36.5t89 -26t99.5 -21.5q10 -2 73.5 -14.5t91 -18.5t90 -25.5t95.5 -39t80 -55t71.5 -77.5t43 -102.5t18.5 -134.5q0 -225 -153.5 -342t-415.5 -117q-211 0 -352.5 58.5t-289.5 169.5z
M1571 307q68 98 184 37q209 -109 381 -108q150 0 218.5 50t68.5 128q0 41 -20.5 72.5t-46 51t-79 37t-89.5 25.5t-105 23q-221 43 -314 84q-258 115 -258 368q0 125 52.5 217t139.5 139.5t181 69t197 21.5q176 0 304 -48.5t255 -144.5l-82 -112q-70 -98 -186 -39
q-162 78 -322 77q-100 0 -176 -35.5t-76 -115.5q0 -39 23.5 -72t51.5 -51t85 -36.5t89 -26t99 -21.5q10 -2 74 -14.5t91.5 -18.5t90 -25.5t95 -39t79.5 -55t72 -77.5t43.5 -102.5t18.5 -134.5q0 -225 -154 -342t-416 -117q-211 0 -352 58.5t-289 169.5z" />
    <glyph glyph-name="agrave" unicode="&#xe0;" 
d="M537 1853q113 49 184 -47l166 -215h-107q-92 0 -168 56l-200 151zM373 98q-47 -98 -160 -98h-201l766 1499h29l766 -1499h-201q-113 0 -160 98l-67 138h-707zM793 938l-215 -453h428z" />
    <glyph glyph-name="aacute" unicode="&#xe1;" 
d="M690 1591l166 215q72 96 184 47l127 -55l-200 -151q-76 -55 -168 -56h-109zM373 98q-47 -98 -160 -98h-201l766 1499h29l766 -1499h-201q-113 0 -160 98l-67 138h-707zM793 938l-215 -453h428z" />
    <glyph glyph-name="acircumflex" unicode="&#xe2;" 
d="M422 1573l250 315h239l252 -315h-147q-90 0 -139 57l-89 103l-79 -101q-45 -59 -140 -59h-147zM373 98q-47 -98 -160 -98h-201l766 1499h29l766 -1499h-201q-113 0 -160 98l-67 138h-707zM793 938l-215 -453h428z" />
    <glyph glyph-name="atilde" unicode="&#xe3;" 
d="M944 1554q-72 0 -123 34t-90 68t-80 34q-37 0 -67 -39q-51 -70 -115 -52l-86 25q23 88 88.5 167t167.5 81q74 0 127 -34t92 -67.5t78 -33.5q31 0 57 26q61 61 119 41l88 -32q-35 -94 -102.5 -156t-153.5 -62zM373 98q-47 -98 -160 -98h-201l766 1499h29l766 -1499h-201
q-113 0 -160 98l-67 138h-707zM793 938l-215 -453h428z" />
    <glyph glyph-name="adieresis" unicode="&#xe4;" 
d="M444 1706q0 59 41 99t100.5 40t98.5 -40t39 -99t-39 -98t-98.5 -39t-100.5 39t-41 98zM862 1706q0 59 40 99t99.5 40t99.5 -40t40 -99t-40 -98t-99.5 -39t-99.5 39t-40 98zM373 98q-47 -98 -160 -98h-201l766 1499h29l766 -1499h-201q-113 0 -160 98l-67 138h-707z
M793 938l-215 -453h428z" />
    <glyph glyph-name="aring" unicode="&#xe5;" 
d="M12 0l736 1440q-76 16 -125.5 76.5t-49.5 140.5q0 90 64.5 154.5t157.5 64.5q90 0 154.5 -64.5t64.5 -154.5q0 -80 -51.5 -141.5t-126.5 -75.5l737 -1440h-311l-117 236h-707l-114 -236h-312zM795 1739q-35 0 -59.5 -23.5t-24.5 -58.5t24.5 -59.5t59 -24.5t58.5 24.5
t24 59.5t-24.5 58.5t-57.5 23.5zM578 485h428l-213 453z" />
    <glyph glyph-name="ae" unicode="&#xe6;" horiz-adv-x="2174" 
d="M-25 0l990 1501h1077v-129q0 -129 -135 -129h-682v-371h643v-127q0 -135 -135 -135h-508v-350h680q59 0 98 -39t39 -98v-123h-1104v252h-473l-109 -164q-55 -88 -161 -88h-220zM631 506h307v485z" />
    <glyph glyph-name="ccedilla" unicode="&#xe7;" horiz-adv-x="1593" 
d="M1210 395q66 78 150 43l176 -71q-80 -170 -246 -276.5t-383 -117.5l-28 -63q39 10 82 -6q113 -39 104 -164q-10 -170 -209 -170q-49 0 -92 14.5t-59 28.5l-19 14l10 23q33 66 97 51q25 -6 63 -6q27 0 45.5 15.5t18.5 41.5q0 45 -68 45q-27 0 -53.5 -7t-40.5 -13l-13 -6
l-28 47l61 157q-297 29 -496.5 247t-199.5 526q0 326 227.5 551t548.5 225q238 0 415 -113t263 -285l-176 -71q-80 -33 -150 43q-139 160 -352 159q-203 0 -346 -150.5t-143 -358.5q0 -211 143 -360.5t346 -149.5q215 -1 352 157z" />
    <glyph glyph-name="egrave" unicode="&#xe8;" horiz-adv-x="1398" 
d="M537 1853q113 49 184 -47l166 -215h-107q-92 0 -168 56l-200 151zM164 0v1499h1102v-127q0 -127 -136 -127h-681v-375h643v-118q0 -135 -136 -136h-507v-362h679q59 0 98.5 -39t39.5 -98v-117h-1102z" />
    <glyph glyph-name="eacute" unicode="&#xe9;" horiz-adv-x="1398" 
d="M522 1591l166 215q72 96 184 47l127 -55l-200 -151q-76 -55 -168 -56h-109zM164 0v1499h1102v-127q0 -127 -136 -127h-681v-375h643v-118q0 -135 -136 -136h-507v-362h679q59 0 98.5 -39t39.5 -98v-117h-1102z" />
    <glyph glyph-name="ecircumflex" unicode="&#xea;" horiz-adv-x="1398" 
d="M350 1573l250 315h240l252 -315h-148q-90 0 -139 57l-88 103l-80 -101q-45 -59 -139 -59h-148zM164 0v1499h1102v-127q0 -127 -136 -127h-681v-375h643v-118q0 -135 -136 -136h-507v-362h679q59 0 98.5 -39t39.5 -98v-117h-1102z" />
    <glyph glyph-name="edieresis" unicode="&#xeb;" horiz-adv-x="1398" 
d="M373 1706q0 59 41 99t100 40t98 -40t39 -99t-39 -98t-98 -39t-100 39t-41 98zM791 1706q0 59 39.5 99t99 40t99.5 -40t40 -99t-40 -98t-99.5 -39t-99 39t-39.5 98zM164 0v1499h1102v-127q0 -127 -136 -127h-681v-375h643v-118q0 -135 -136 -136h-507v-362h679
q59 0 98.5 -39t39.5 -98v-117h-1102z" />
    <glyph glyph-name="igrave" unicode="&#xec;" horiz-adv-x="655" 
d="M123 1853q113 49 184 -47l166 -215h-106q-92 0 -168 56l-201 151zM336 1499q135 0 135 -135v-1364h-152q-135 0 -135 135v1364h152z" />
    <glyph glyph-name="iacute" unicode="&#xed;" horiz-adv-x="655" 
d="M182 1591l166 215q72 96 184 47l127 -55l-200 -151q-76 -55 -168 -56h-109zM336 1499q135 0 135 -135v-1364h-152q-135 0 -135 135v1364h152z" />
    <glyph glyph-name="icircumflex" unicode="&#xee;" horiz-adv-x="655" 
d="M-45 1573l250 315h239l252 -315h-147q-90 0 -139 57l-88 103l-80 -101q-45 -59 -140 -59h-147zM336 1499q135 0 135 -135v-1364h-152q-135 0 -135 135v1364h152z" />
    <glyph glyph-name="idieresis" unicode="&#xef;" horiz-adv-x="655" 
d="M-18 1706q0 59 40.5 99t100 40t98.5 -40t39 -99t-39 -98t-98.5 -39t-100 39t-40.5 98zM399 1706q0 59 40 99t99.5 40t99.5 -40t40 -99t-40 -98t-99.5 -39t-99.5 39t-40 98zM336 1499q135 0 135 -135v-1364h-152q-135 0 -135 135v1364h152z" />
    <glyph glyph-name="eth" unicode="&#xf0;" horiz-adv-x="1609" 
d="M59 743q0 53 30 89t75 36v631h592q356 0 553.5 -200.5t197.5 -549t-195.5 -549t-555.5 -200.5h-592v616h-105v127zM451 258h305q463 0 463 490q0 494 -463 493h-305v-373h319v-114q0 -59 -39 -98.5t-98 -39.5h-182v-358z" />
    <glyph glyph-name="ntilde" unicode="&#xf1;" horiz-adv-x="1630" 
d="M965 1554q-72 0 -123 34t-90 68t-80 34q-37 0 -68 -39q-51 -70 -115 -52l-86 25q23 88 88.5 167t167.5 81q74 0 127.5 -34t92.5 -67.5t77 -33.5q31 0 58 26q61 61 119 41l88 -32q-35 -94 -102.5 -156t-153.5 -62zM1466 0h-30l-987 891v-756q0 -135 -136 -135h-149v1499
h31l985 -907v772q0 135 135 135h151v-1499z" />
    <glyph glyph-name="ograve" unicode="&#xf2;" horiz-adv-x="1732" 
d="M678 1853q113 49 184 -47l166 -215h-106q-92 0 -168 56l-201 151zM864 -29q-344 0 -560 224.5t-216 554.5q0 328 216 553t560 225q346 0 562 -224.5t216 -554t-216 -554t-562 -224.5zM864 1260q-205 0 -348 -146.5t-143 -364t143 -364.5t348 -147t348.5 147t143.5 364.5
t-143.5 364t-348.5 146.5z" />
    <glyph glyph-name="oacute" unicode="&#xf3;" horiz-adv-x="1732" 
d="M682 1591l166 215q72 96 184 47l127 -55l-201 -151q-76 -55 -167 -56h-109zM864 -29q-344 0 -560 224.5t-216 554.5q0 328 216 553t560 225q346 0 562 -224.5t216 -554t-216 -554t-562 -224.5zM864 1260q-205 0 -348 -146.5t-143 -364t143 -364.5t348 -147t348.5 147
t143.5 364.5t-143.5 364t-348.5 146.5z" />
    <glyph glyph-name="ocircumflex" unicode="&#xf4;" horiz-adv-x="1732" 
d="M496 1573l249 315h240l252 -315h-147q-90 0 -140 57l-88 103l-80 -101q-45 -59 -139 -59h-147zM864 -29q-344 0 -560 224.5t-216 554.5q0 328 216 553t560 225q346 0 562 -224.5t216 -554t-216 -554t-562 -224.5zM864 1260q-205 0 -348 -146.5t-143 -364t143 -364.5
t348 -147t348.5 147t143.5 364.5t-143.5 364t-348.5 146.5z" />
    <glyph glyph-name="otilde" unicode="&#xf5;" horiz-adv-x="1732" 
d="M1018 1554q-72 0 -123 34t-90 68t-80 34q-37 0 -68 -39q-51 -70 -114 -52l-86 25q23 88 88 167t168 81q74 0 127 -34t92 -67.5t78 -33.5q31 0 57 26q61 61 119 41l88 -32q-35 -94 -102.5 -156t-153.5 -62zM864 -29q-344 0 -560 224.5t-216 554.5q0 328 216 553t560 225
q346 0 562 -224.5t216 -554t-216 -554t-562 -224.5zM864 1260q-205 0 -348 -146.5t-143 -364t143 -364.5t348 -147t348.5 147t143.5 364.5t-143.5 364t-348.5 146.5z" />
    <glyph glyph-name="odieresis" unicode="&#xf6;" horiz-adv-x="1732" 
d="M514 1706q0 59 41 99t100.5 40t98.5 -40t39 -99t-39 -98t-98.5 -39t-100.5 39t-41 98zM932 1706q0 59 40 99t99 40t99 -40t40 -99t-40 -98t-99 -39t-99 39t-40 98zM864 -29q-344 0 -560 224.5t-216 554.5q0 328 216 553t560 225q346 0 562 -224.5t216 -554t-216 -554
t-562 -224.5zM864 1260q-205 0 -348 -146.5t-143 -364t143 -364.5t348 -147t348.5 147t143.5 364.5t-143.5 364t-348.5 146.5z" />
    <glyph glyph-name="divide" unicode="&#xf7;" horiz-adv-x="1253" 
d="M768 1237q0 -59 -42 -101t-101.5 -42t-101.5 42t-42 101t42 101t101.5 42t101.5 -42t42 -101zM1151 887v-117q0 -135 -135 -135h-918v117q0 135 135 135h918zM768 288.5q0 -59.5 -42 -101.5t-101.5 -42t-101.5 42t-42 101.5t42 100.5t101.5 41t101.5 -41t42 -100.5z" />
    <glyph glyph-name="oslash" unicode="&#xf8;" horiz-adv-x="1732" 
d="M864 -29q-233 0 -426 127l-39 -45q-41 -45 -95 -48t-99 36l-58 51l132 148q-190 217 -191 510q0 328 216 553t560 225q238 0 436 -133l37 43q39 45 94.5 48t100.5 -38l57 -49l-131 -148q184 -221 184 -501q0 -330 -216 -554.5t-562 -224.5zM864 1260q-201 0 -346 -153
t-145 -357q0 -164 94 -297l647 733q-121 74 -250 74zM864 238q203 0 347.5 152.5t144.5 359.5q0 154 -88 286l-647 -731q112 -67 243 -67z" />
    <glyph glyph-name="ugrave" unicode="&#xf9;" horiz-adv-x="1613" 
d="M612 1853q113 49 185 -47l166 -215h-107q-92 0 -168 56l-201 151zM807 -27q-293 0 -468 172t-175 459v895h151q135 0 136 -135v-760q0 -106 35.5 -185t93 -118t115 -57.5t112.5 -18.5t112.5 18.5t115 57.5t93 118t35.5 185v760q0 135 135 135h152v-895q0 -287 -175 -459
t-468 -172z" />
    <glyph glyph-name="uacute" unicode="&#xfa;" horiz-adv-x="1613" 
d="M647 1591l166 215q72 96 184 47l127 -55l-200 -151q-76 -55 -168 -56h-109zM807 -27q-293 0 -468 172t-175 459v895h151q135 0 136 -135v-760q0 -106 35.5 -185t93 -118t115 -57.5t112.5 -18.5t112.5 18.5t115 57.5t93 118t35.5 185v760q0 135 135 135h152v-895
q0 -287 -175 -459t-468 -172z" />
    <glyph glyph-name="ucircumflex" unicode="&#xfb;" horiz-adv-x="1613" 
d="M438 1573l250 315h240l252 -315h-148q-90 0 -139 57l-88 103l-80 -101q-45 -59 -139 -59h-148zM807 -27q-293 0 -468 172t-175 459v895h151q135 0 136 -135v-760q0 -106 35.5 -185t93 -118t115 -57.5t112.5 -18.5t112.5 18.5t115 57.5t93 118t35.5 185v760q0 135 135 135
h152v-895q0 -287 -175 -459t-468 -172z" />
    <glyph glyph-name="udieresis" unicode="&#xfc;" horiz-adv-x="1613" 
d="M459 1706q0 59 41 99t100 40t98 -40t39 -99t-39 -98t-98 -39t-100 39t-41 98zM877 1706q0 59 39.5 99t99 40t99.5 -40t40 -99t-40 -98t-99.5 -39t-99 39t-39.5 98zM807 -27q-293 0 -468 172t-175 459v895h151q135 0 136 -135v-760q0 -106 35.5 -185t93 -118t115 -57.5
t112.5 -18.5t112.5 18.5t115 57.5t93 118t35.5 185v760q0 135 135 135h152v-895q0 -287 -175 -459t-468 -172z" />
    <glyph glyph-name="yacute" unicode="&#xfd;" horiz-adv-x="1452" 
d="M526 1591l166 215q72 96 185 47l127 -55l-201 -151q-76 -55 -168 -56h-109zM1053 1407q53 92 161 92h228l-572 -932v-432q0 -135 -135 -135h-151v567l-568 932h228q109 0 162 -92l321 -545z" />
    <glyph glyph-name="thorn" unicode="&#xfe;" horiz-adv-x="1456" 
d="M831 1282q219 0 376 -156.5t157 -376t-156.5 -376t-376.5 -156.5h-380v-217h-150q-59 0 -98 39t-39 98v1362h149q59 0 98.5 -39t39.5 -98v-80h380zM784 473q154 0 223.5 80t69.5 196.5t-69.5 196.5t-223.5 80h-333v-553h333z" />
    <glyph glyph-name="ydieresis" unicode="&#xff;" horiz-adv-x="1452" 
d="M381 1714.5q0 59.5 41 99t100.5 39.5t98 -39.5t38.5 -99t-38.5 -98.5t-98 -39t-100.5 39t-41 98.5zM799 1714.5q0 59.5 40 99t99 39.5t99 -39.5t40 -99t-40 -98.5t-99 -39t-99 39t-40 98.5zM1053 1407q53 92 161 92h228l-572 -932v-432q0 -135 -135 -135h-151v567
l-568 932h228q109 0 162 -92l321 -545z" />
    <glyph glyph-name="Amacron" unicode="&#x100;" 
d="M1106 1786v-74q0 -49 -33 -82t-82 -33h-516v74q0 49 33 82t82 33h516zM373 98q-47 -98 -160 -98h-201l766 1499h29l766 -1499h-201q-113 0 -160 98l-67 138h-707zM793 938l-215 -453h428z" />
    <glyph glyph-name="amacron" unicode="&#x101;" 
d="M1106 1786v-74q0 -49 -33 -82t-82 -33h-516v74q0 49 33 82t82 33h516zM373 98q-47 -98 -160 -98h-201l766 1499h29l766 -1499h-201q-113 0 -160 98l-67 138h-707zM793 938l-215 -453h428z" />
    <glyph glyph-name="Abreve" unicode="&#x102;" 
d="M948 1819q49 66 109 65h112q-23 -143 -124 -228t-252 -85q-150 0 -251.5 87t-123.5 226h112q53 0 107 -65q59 -72 157.5 -72t153.5 72zM373 98q-47 -98 -160 -98h-201l766 1499h29l766 -1499h-201q-113 0 -160 98l-67 138h-707zM793 938l-215 -453h428z" />
    <glyph glyph-name="abreve" unicode="&#x103;" 
d="M948 1819q49 66 109 65h112q-23 -143 -124 -228t-252 -85q-150 0 -251.5 87t-123.5 226h112q53 0 107 -65q59 -72 157.5 -72t153.5 72zM373 98q-47 -98 -160 -98h-201l766 1499h29l766 -1499h-201q-113 0 -160 98l-67 138h-707zM793 938l-215 -453h428z" />
    <glyph glyph-name="Aogonek" unicode="&#x104;" 
d="M1640 -256l41 -92q-23 -14 -83 -27.5t-99 -11.5q-115 0 -182 55q-74 59 -91.5 162.5t36.5 204.5q-31 25 -50 63l-67 138h-707l-65 -138q-47 -98 -160 -98h-201l766 1499h29l766 -1499h-39q-82 0 -118 -65.5t18 -112.5q31 -29 92 -25q85 10 114 -53zM578 485h428l-213 453
z" />
    <glyph glyph-name="aogonek" unicode="&#x105;" 
d="M1640 -256l41 -92q-23 -14 -83 -27.5t-99 -11.5q-115 0 -182 55q-74 59 -91.5 162.5t36.5 204.5q-31 25 -50 63l-67 138h-707l-65 -138q-47 -98 -160 -98h-201l766 1499h29l766 -1499h-39q-82 0 -118 -65.5t18 -112.5q31 -29 92 -25q85 10 114 -53zM578 485h428l-213 453
z" />
    <glyph glyph-name="Cacute" unicode="&#x106;" horiz-adv-x="1593" 
d="M664 1591l165 215q72 96 185 47l127 -55l-201 -151q-76 -55 -168 -56h-108zM1360 1055q-80 -33 -150 43q-139 160 -352 159q-203 0 -346 -150.5t-143 -358.5q0 -211 143 -360.5t346 -149.5q215 0 352 157q66 78 150 43l176 -71q-86 -180 -264 -288t-414 -108
q-324 0 -550 224.5t-226 552.5q0 326 227.5 551t548.5 225q238 0 415 -113t263 -285z" />
    <glyph glyph-name="cacute" unicode="&#x107;" horiz-adv-x="1593" 
d="M664 1591l165 215q72 96 185 47l127 -55l-201 -151q-76 -55 -168 -56h-108zM1360 1055q-80 -33 -150 43q-139 160 -352 159q-203 0 -346 -150.5t-143 -358.5q0 -211 143 -360.5t346 -149.5q215 0 352 157q66 78 150 43l176 -71q-86 -180 -264 -288t-414 -108
q-324 0 -550 224.5t-226 552.5q0 326 227.5 551t548.5 225q238 0 415 -113t263 -285z" />
    <glyph glyph-name="Ccaron" unicode="&#x10c;" horiz-adv-x="1593" 
d="M1200 1888l-250 -315h-239l-252 315h147q92 0 139 -57l84 -100l84 100q47 57 140 57h147zM1360 1055q-80 -33 -150 43q-139 160 -352 159q-203 0 -346 -150.5t-143 -358.5q0 -211 143 -360.5t346 -149.5q215 0 352 157q66 78 150 43l176 -71q-86 -180 -264 -288
t-414 -108q-324 0 -550 224.5t-226 552.5q0 326 227.5 551t548.5 225q238 0 415 -113t263 -285z" />
    <glyph glyph-name="ccaron" unicode="&#x10d;" horiz-adv-x="1593" 
d="M1200 1888l-250 -315h-239l-252 315h147q92 0 139 -57l84 -100l84 100q47 57 140 57h147zM1360 1055q-80 -33 -150 43q-139 160 -352 159q-203 0 -346 -150.5t-143 -358.5q0 -211 143 -360.5t346 -149.5q215 0 352 157q66 78 150 43l176 -71q-86 -180 -264 -288
t-414 -108q-324 0 -550 224.5t-226 552.5q0 326 227.5 551t548.5 225q238 0 415 -113t263 -285z" />
    <glyph glyph-name="Dcaron" unicode="&#x10e;" horiz-adv-x="1609" 
d="M1124 1888l-250 -315h-239l-252 315h147q92 0 140 -57l84 -100l84 100q47 57 139 57h147zM164 0v1499h592q356 0 553.5 -200.5t197.5 -549t-195.5 -549t-555.5 -200.5h-592zM451 258h305q463 0 463 490q0 494 -463 493h-305v-983z" />
    <glyph glyph-name="dcaron" unicode="&#x10f;" horiz-adv-x="1609" 
d="M1124 1888l-250 -315h-239l-252 315h147q92 0 140 -57l84 -100l84 100q47 57 139 57h147zM164 0v1499h592q356 0 553.5 -200.5t197.5 -549t-195.5 -549t-555.5 -200.5h-592zM451 258h305q463 0 463 490q0 494 -463 493h-305v-983z" />
    <glyph glyph-name="Dcroat" unicode="&#x110;" horiz-adv-x="1609" 
d="M59 743q0 53 30 89t75 36v631h592q356 0 553.5 -200.5t197.5 -549t-195.5 -549t-555.5 -200.5h-592v616h-105v127zM451 258h305q463 0 463 490q0 494 -463 493h-305v-373h319v-114q0 -59 -39 -98.5t-98 -39.5h-182v-358z" />
    <glyph glyph-name="dcroat" unicode="&#x111;" horiz-adv-x="1609" 
d="M59 743q0 53 30 89t75 36v631h592q356 0 553.5 -200.5t197.5 -549t-195.5 -549t-555.5 -200.5h-592v616h-105v127zM451 258h305q463 0 463 490q0 494 -463 493h-305v-373h319v-114q0 -59 -39 -98.5t-98 -39.5h-182v-358z" />
    <glyph glyph-name="Emacron" unicode="&#x112;" horiz-adv-x="1398" 
d="M1034 1786v-74q0 -49 -32.5 -82t-81.5 -33h-517v74q0 49 33 82t82 33h516zM164 0v1499h1102v-127q0 -127 -136 -127h-681v-375h643v-118q0 -135 -136 -136h-507v-362h679q59 0 98.5 -39t39.5 -98v-117h-1102z" />
    <glyph glyph-name="emacron" unicode="&#x113;" horiz-adv-x="1398" 
d="M1034 1786v-74q0 -49 -32.5 -82t-81.5 -33h-517v74q0 49 33 82t82 33h516zM164 0v1499h1102v-127q0 -127 -136 -127h-681v-375h643v-118q0 -135 -136 -136h-507v-362h679q59 0 98.5 -39t39.5 -98v-117h-1102z" />
    <glyph glyph-name="Edotaccent" unicode="&#x116;" horiz-adv-x="1398" 
d="M584 1728.5q0 59.5 41 99.5t100 40t98 -40t39 -99.5t-39 -98.5t-98 -39t-100 39t-41 98.5zM164 0v1499h1102v-127q0 -127 -136 -127h-681v-375h643v-118q0 -135 -136 -136h-507v-362h679q59 0 98.5 -39t39.5 -98v-117h-1102z" />
    <glyph glyph-name="edotaccent" unicode="&#x117;" horiz-adv-x="1398" 
d="M584 1728.5q0 59.5 41 99.5t100 40t98 -40t39 -99.5t-39 -98.5t-98 -39t-100 39t-41 98.5zM164 0v1499h1102v-127q0 -127 -136 -127h-681v-375h643v-118q0 -135 -136 -136h-507v-362h679q59 0 98.5 -39t39.5 -98v-117h-1102z" />
    <glyph glyph-name="Eogonek" unicode="&#x118;" horiz-adv-x="1398" 
d="M1262 -256l41 -92q-23 -14 -83.5 -27.5t-99.5 -11.5q-115 0 -182.5 55.5t-88 147.5t16.5 184h-702v1499h1102v-127q0 -127 -136 -127h-681v-375h643v-118q0 -135 -136 -136h-507v-362h679q59 0 98.5 -39t39.5 -98v-117h-111q-82 0 -118 -65.5t18 -112.5q31 -29 92 -25
q86 10 115 -53z" />
    <glyph glyph-name="eogonek" unicode="&#x119;" horiz-adv-x="1398" 
d="M1262 -256l41 -92q-23 -14 -83.5 -27.5t-99.5 -11.5q-115 0 -182.5 55.5t-88 147.5t16.5 184h-702v1499h1102v-127q0 -127 -136 -127h-681v-375h643v-118q0 -135 -136 -136h-507v-362h679q59 0 98.5 -39t39.5 -98v-117h-111q-82 0 -118 -65.5t18 -112.5q31 -29 92 -25
q86 10 115 -53z" />
    <glyph glyph-name="Ecaron" unicode="&#x11a;" horiz-adv-x="1398" 
d="M1098 1888l-250 -315h-240l-252 315h148q92 0 139 -57l84 -100l84 100q47 57 139 57h148zM164 0v1499h1102v-127q0 -127 -136 -127h-681v-375h643v-118q0 -135 -136 -136h-507v-362h679q59 0 98.5 -39t39.5 -98v-117h-1102z" />
    <glyph glyph-name="ecaron" unicode="&#x11b;" horiz-adv-x="1398" 
d="M1098 1888l-250 -315h-240l-252 315h148q92 0 139 -57l84 -100l84 100q47 57 139 57h148zM164 0v1499h1102v-127q0 -127 -136 -127h-681v-375h643v-118q0 -135 -136 -136h-507v-362h679q59 0 98.5 -39t39.5 -98v-117h-1102z" />
    <glyph glyph-name="Gbreve" unicode="&#x11e;" horiz-adv-x="1695" 
d="M1012 1819q49 66 108 65h113q-23 -143 -124 -228t-253 -85q-150 0 -251 87t-124 226h113q53 0 106 -65q59 -72 158 -72t154 72zM1612 819q6 -119 0 -192q-25 -291 -225.5 -473.5t-509.5 -182.5q-334 0 -564.5 227.5t-230.5 549t227.5 550t548.5 228.5q199 0 369 -93.5
t276 -252.5l-135 -84q-94 -59 -188 28q-147 133 -322 133q-205 0 -348 -146t-143 -363q0 -219 147.5 -364.5t370.5 -145.5q170 0 286.5 92t135.5 231h-418q-135 0 -135 135v123h858z" />
    <glyph glyph-name="gbreve" unicode="&#x11f;" horiz-adv-x="1695" 
d="M1012 1819q49 66 108 65h113q-23 -143 -124 -228t-253 -85q-150 0 -251 87t-124 226h113q53 0 106 -65q59 -72 158 -72t154 72zM1612 819q6 -119 0 -192q-25 -291 -225.5 -473.5t-509.5 -182.5q-334 0 -564.5 227.5t-230.5 549t227.5 550t548.5 228.5q199 0 369 -93.5
t276 -252.5l-135 -84q-94 -59 -188 28q-147 133 -322 133q-205 0 -348 -146t-143 -363q0 -219 147.5 -364.5t370.5 -145.5q170 0 286.5 92t135.5 231h-418q-135 0 -135 135v123h858z" />
    <glyph glyph-name="uni0122" unicode="&#x122;" horiz-adv-x="1695" 
d="M1612 819q6 -119 0 -192q-25 -291 -225.5 -473.5t-509.5 -182.5q-334 0 -564.5 227.5t-230.5 549t227.5 550t548.5 228.5q199 0 369 -93.5t276 -252.5l-135 -84q-94 -59 -188 28q-147 133 -322 133q-205 0 -348 -146t-143 -363q0 -219 147.5 -364.5t370.5 -145.5
q170 0 286.5 92t135.5 231h-418q-135 0 -135 135v123h858zM1024 -205q33 -123 -42 -248t-216 -155l-10 20q-23 47 32 80q72 45 84 127q-61 -2 -107 40t-48 103q-2 63 40 108.5t103 49.5q57 2 103.5 -33t60.5 -92z" />
    <glyph glyph-name="uni0123" unicode="&#x123;" horiz-adv-x="1695" 
d="M1612 819q6 -119 0 -192q-25 -291 -225.5 -473.5t-509.5 -182.5q-334 0 -564.5 227.5t-230.5 549t227.5 550t548.5 228.5q199 0 369 -93.5t276 -252.5l-135 -84q-94 -59 -188 28q-147 133 -322 133q-205 0 -348 -146t-143 -363q0 -219 147.5 -364.5t370.5 -145.5
q170 0 286.5 92t135.5 231h-418q-135 0 -135 135v123h858zM1024 -205q33 -123 -42 -248t-216 -155l-10 20q-23 47 32 80q72 45 84 127q-61 -2 -107 40t-48 103q-2 63 40 108.5t103 49.5q57 2 103.5 -33t60.5 -92z" />
    <glyph glyph-name="Imacron" unicode="&#x12a;" horiz-adv-x="655" 
d="M645 1786v-74q0 -49 -32.5 -82t-82.5 -33h-516v74q0 49 33 82t82 33h516zM336 1499q135 0 135 -135v-1364h-152q-135 0 -135 135v1364h152z" />
    <glyph glyph-name="imacron" unicode="&#x12b;" horiz-adv-x="655" 
d="M645 1786v-74q0 -49 -32.5 -82t-82.5 -33h-516v74q0 49 33 82t82 33h516zM336 1499q135 0 135 -135v-1364h-152q-135 0 -135 135v1364h152z" />
    <glyph glyph-name="Iogonek" unicode="&#x12e;" horiz-adv-x="655" 
d="M578 -256l40 -92q-23 -14 -83 -27.5t-99 -11.5q-115 0 -182 55q-78 63 -93.5 171t46.5 210q-23 35 -23 86v1364h152q135 0 135 -135v-1364q-82 0 -118 -65.5t18 -112.5q31 -29 92 -25q86 10 115 -53z" />
    <glyph glyph-name="iogonek" unicode="&#x12f;" horiz-adv-x="655" 
d="M578 -256l40 -92q-23 -14 -83 -27.5t-99 -11.5q-115 0 -182 55q-78 63 -93.5 171t46.5 210q-23 35 -23 86v1364h152q135 0 135 -135v-1364q-82 0 -118 -65.5t18 -112.5q31 -29 92 -25q86 10 115 -53z" />
    <glyph glyph-name="Idotaccent" unicode="&#x130;" horiz-adv-x="655" 
d="M188 1726.5q0 59.5 41 99.5t100.5 40t98.5 -40t39 -99.5t-39 -98.5t-98.5 -39t-100.5 39t-41 98.5zM336 1499q135 0 135 -135v-1364h-152q-135 0 -135 135v1364h152z" />
    <glyph glyph-name="dotlessi" unicode="&#x131;" horiz-adv-x="655" 
d="M336 1499q135 0 135 -135v-1364h-152q-135 0 -135 135v1364h152z" />
    <glyph glyph-name="uni0136" unicode="&#x136;" horiz-adv-x="1478" 
d="M1458 0h-280q-98 0 -166 74l-561 608v-547q0 -135 -136 -135h-151v1499h151q135 0 136 -135v-627l532 682q61 80 166 80h250l-617 -776zM891 -186q33 -123 -42 -248t-216 -156l-10 21q-23 47 32 80q72 45 84 127q-61 -2 -107 39.5t-48 103.5q-2 63 40 108t103 50
q57 2 103.5 -33t60.5 -92z" />
    <glyph glyph-name="uni0137" unicode="&#x137;" horiz-adv-x="1478" 
d="M1458 0h-280q-98 0 -166 74l-561 608v-547q0 -135 -136 -135h-151v1499h151q135 0 136 -135v-627l532 682q61 80 166 80h250l-617 -776zM891 -186q33 -123 -42 -248t-216 -156l-10 21q-23 47 32 80q72 45 84 127q-61 -2 -107 39.5t-48 103.5q-2 63 40 108t103 50
q57 2 103.5 -33t60.5 -92z" />
    <glyph glyph-name="Lacute" unicode="&#x139;" horiz-adv-x="1259" 
d="M164 1591l166 215q72 96 184 47l127 -55l-201 -151q-76 -55 -168 -56h-108zM451 254h657q135 0 135 -135v-119h-1079v1499h151q135 0 136 -135v-1110z" />
    <glyph glyph-name="lacute" unicode="&#x13a;" horiz-adv-x="1259" 
d="M164 1591l166 215q72 96 184 47l127 -55l-201 -151q-76 -55 -168 -56h-108zM451 254h657q135 0 135 -135v-119h-1079v1499h151q135 0 136 -135v-1110z" />
    <glyph glyph-name="uni013B" unicode="&#x13b;" horiz-adv-x="1259" 
d="M451 254h657q135 0 135 -135v-119h-1079v1499h151q135 0 136 -135v-1110zM852 -186q33 -123 -42 -248t-216 -156l-10 21q-23 47 32 80q72 45 84 127q-61 -2 -107 39.5t-48 103.5q-2 63 40 108t103 50q57 2 103.5 -33t60.5 -92z" />
    <glyph glyph-name="uni013C" unicode="&#x13c;" horiz-adv-x="1259" 
d="M451 254h657q135 0 135 -135v-119h-1079v1499h151q135 0 136 -135v-1110zM852 -186q33 -123 -42 -248t-216 -156l-10 21q-23 47 32 80q72 45 84 127q-61 -2 -107 39.5t-48 103.5q-2 63 40 108t103 50q57 2 103.5 -33t60.5 -92z" />
    <glyph glyph-name="Lcaron" unicode="&#x13d;" horiz-adv-x="1259" 
d="M936 1378q33 -123 -42 -247.5t-216 -155.5l-10 20q-23 47 32 80q72 45 84 127q-61 -2 -107 40t-48 104q-2 63 40 108t103 49q57 2 103.5 -33t60.5 -92zM451 254h657q135 0 135 -135v-119h-1079v1499h151q135 0 136 -135v-1110z" />
    <glyph glyph-name="lcaron" unicode="&#x13e;" horiz-adv-x="1259" 
d="M936 1378q33 -123 -42 -247.5t-216 -155.5l-10 20q-23 47 32 80q72 45 84 127q-61 -2 -107 40t-48 104q-2 63 40 108t103 49q57 2 103.5 -33t60.5 -92zM451 254h657q135 0 135 -135v-119h-1079v1499h151q135 0 136 -135v-1110z" />
    <glyph glyph-name="Lslash" unicode="&#x141;" horiz-adv-x="1323" 
d="M41 592q0 72 61 104l123 68v735h150q59 0 98 -39t39 -98v-436l457 258v-211q0 -72 -62 -105l-395 -223v-391h655q59 0 98.5 -39t39.5 -98v-117h-1080v483l-184 -102v211z" />
    <glyph glyph-name="lslash" unicode="&#x142;" horiz-adv-x="1323" 
d="M41 592q0 72 61 104l123 68v735h150q59 0 98 -39t39 -98v-436l457 258v-211q0 -72 -62 -105l-395 -223v-391h655q59 0 98.5 -39t39.5 -98v-117h-1080v483l-184 -102v211z" />
    <glyph glyph-name="Nacute" unicode="&#x143;" horiz-adv-x="1630" 
d="M584 1591l166 215q72 96 184 47l127 -55l-201 -151q-76 -55 -168 -56h-108zM1466 0h-30l-987 891v-756q0 -135 -136 -135h-149v1499h31l985 -907v772q0 135 135 135h151v-1499z" />
    <glyph glyph-name="nacute" unicode="&#x144;" horiz-adv-x="1630" 
d="M584 1591l166 215q72 96 184 47l127 -55l-201 -151q-76 -55 -168 -56h-108zM1466 0h-30l-987 891v-756q0 -135 -136 -135h-149v1499h31l985 -907v772q0 135 135 135h151v-1499z" />
    <glyph glyph-name="uni0145" unicode="&#x145;" horiz-adv-x="1630" 
d="M1466 0h-30l-987 891v-756q0 -135 -136 -135h-149v1499h31l985 -907v772q0 135 135 135h151v-1499zM1004 -186q33 -123 -42 -248t-217 -156l-10 21q-23 47 33 80q72 45 84 127q-61 -2 -107.5 39.5t-48.5 103.5q-2 63 40 108t104 50q57 2 103.5 -33t60.5 -92z" />
    <glyph glyph-name="uni0146" unicode="&#x146;" horiz-adv-x="1630" 
d="M1466 0h-30l-987 891v-756q0 -135 -136 -135h-149v1499h31l985 -907v772q0 135 135 135h151v-1499zM1004 -186q33 -123 -42 -248t-217 -156l-10 21q-23 47 33 80q72 45 84 127q-61 -2 -107.5 39.5t-48.5 103.5q-2 63 40 108t104 50q57 2 103.5 -33t60.5 -92z" />
    <glyph glyph-name="Ncaron" unicode="&#x147;" horiz-adv-x="1630" 
d="M1171 1888l-249 -315h-240l-252 315h148q92 0 139 -57l84 -100l84 100q47 57 139 57h147zM1466 0h-30l-987 891v-756q0 -135 -136 -135h-149v1499h31l985 -907v772q0 135 135 135h151v-1499z" />
    <glyph glyph-name="ncaron" unicode="&#x148;" horiz-adv-x="1630" 
d="M1171 1888l-249 -315h-240l-252 315h148q92 0 139 -57l84 -100l84 100q47 57 139 57h147zM1466 0h-30l-987 891v-756q0 -135 -136 -135h-149v1499h31l985 -907v772q0 135 135 135h151v-1499z" />
    <glyph glyph-name="Omacron" unicode="&#x14c;" horiz-adv-x="1732" 
d="M1180 1786v-74q0 -49 -33 -82t-82 -33h-516v74q0 49 32.5 82t82.5 33h516zM864 -29q-344 0 -560 224.5t-216 554.5q0 328 216 553t560 225q346 0 562 -224.5t216 -554t-216 -554t-562 -224.5zM864 1260q-205 0 -348 -146.5t-143 -364t143 -364.5t348 -147t348.5 147
t143.5 364.5t-143.5 364t-348.5 146.5z" />
    <glyph glyph-name="omacron" unicode="&#x14d;" horiz-adv-x="1732" 
d="M1180 1786v-74q0 -49 -33 -82t-82 -33h-516v74q0 49 32.5 82t82.5 33h516zM864 -29q-344 0 -560 224.5t-216 554.5q0 328 216 553t560 225q346 0 562 -224.5t216 -554t-216 -554t-562 -224.5zM864 1260q-205 0 -348 -146.5t-143 -364t143 -364.5t348 -147t348.5 147
t143.5 364.5t-143.5 364t-348.5 146.5z" />
    <glyph glyph-name="Ohungarumlaut" unicode="&#x150;" horiz-adv-x="1732" 
d="M508 1599l166 216q72 96 184 47l127 -56l-201 -151q-76 -55 -168 -56h-108zM895 1599l166 216q72 96 184 47l127 -56l-201 -151q-76 -55 -167 -56h-109zM864 -29q-344 0 -560 224.5t-216 554.5q0 328 216 553t560 225q346 0 562 -224.5t216 -554t-216 -554t-562 -224.5z
M864 1260q-205 0 -348 -146.5t-143 -364t143 -364.5t348 -147t348.5 147t143.5 364.5t-143.5 364t-348.5 146.5z" />
    <glyph glyph-name="ohungarumlaut" unicode="&#x151;" horiz-adv-x="1732" 
d="M508 1599l166 216q72 96 184 47l127 -56l-201 -151q-76 -55 -168 -56h-108zM895 1599l166 216q72 96 184 47l127 -56l-201 -151q-76 -55 -167 -56h-109zM864 -29q-344 0 -560 224.5t-216 554.5q0 328 216 553t560 225q346 0 562 -224.5t216 -554t-216 -554t-562 -224.5z
M864 1260q-205 0 -348 -146.5t-143 -364t143 -364.5t348 -147t348.5 147t143.5 364.5t-143.5 364t-348.5 146.5z" />
    <glyph glyph-name="OE" unicode="&#x152;" horiz-adv-x="2375" 
d="M88 749.5q0 321.5 228.5 550t549.5 228.5q139 0 275 -51v22h1102v-121q0 -135 -136 -135h-682v-373h643v-125q0 -135 -135 -135h-508v-352h680q59 0 98.5 -39t39.5 -98v-121h-1102v23q-135 -51 -275 -52q-322 0 -550 228.5t-228 550zM375 750q0 -238 140 -380.5
t351 -142.5q102 0 163 30t112 85v815q-96 115 -275 115q-213 0 -352 -138t-139 -384z" />
    <glyph glyph-name="oe" unicode="&#x153;" horiz-adv-x="2375" 
d="M88 749.5q0 321.5 228.5 550t549.5 228.5q139 0 275 -51v22h1102v-121q0 -135 -136 -135h-682v-373h643v-125q0 -135 -135 -135h-508v-352h680q59 0 98.5 -39t39.5 -98v-121h-1102v23q-135 -51 -275 -52q-322 0 -550 228.5t-228 550zM375 750q0 -238 140 -380.5
t351 -142.5q102 0 163 30t112 85v815q-96 115 -275 115q-213 0 -352 -138t-139 -384z" />
    <glyph glyph-name="Racute" unicode="&#x154;" horiz-adv-x="1474" 
d="M530 1591l166 215q72 96 185 47l127 -55l-201 -151q-76 -55 -168 -56h-109zM449 477v-342q0 -135 -136 -135h-149v1499h680q229 0 372.5 -144.5t143.5 -371.5q0 -172 -86 -306t-225 -173l374 -504h-239q-100 0 -164 84l-287 393h-284zM449 727h327q299 0 299 258
q0 117 -73.5 188.5t-225.5 71.5h-327v-518z" />
    <glyph glyph-name="racute" unicode="&#x155;" horiz-adv-x="1474" 
d="M530 1591l166 215q72 96 185 47l127 -55l-201 -151q-76 -55 -168 -56h-109zM449 477v-342q0 -135 -136 -135h-149v1499h680q229 0 372.5 -144.5t143.5 -371.5q0 -172 -86 -306t-225 -173l374 -504h-239q-100 0 -164 84l-287 393h-284zM449 727h327q299 0 299 258
q0 117 -73.5 188.5t-225.5 71.5h-327v-518z" />
    <glyph glyph-name="uni0156" unicode="&#x156;" horiz-adv-x="1474" 
d="M449 477v-342q0 -135 -136 -135h-149v1499h680q229 0 372.5 -144.5t143.5 -371.5q0 -172 -86 -306t-225 -173l374 -504h-239q-100 0 -164 84l-287 393h-284zM449 727h327q299 0 299 258q0 117 -73.5 188.5t-225.5 71.5h-327v-518zM901 -209q33 -123 -42 -248t-216 -155
l-10 20q-23 47 33 80q72 45 84 127q-61 -2 -107.5 40t-48.5 103q-2 63 40 108.5t103 49.5q57 2 103.5 -33t60.5 -92z" />
    <glyph glyph-name="uni0157" unicode="&#x157;" horiz-adv-x="1474" 
d="M449 477v-342q0 -135 -136 -135h-149v1499h680q229 0 372.5 -144.5t143.5 -371.5q0 -172 -86 -306t-225 -173l374 -504h-239q-100 0 -164 84l-287 393h-284zM449 727h327q299 0 299 258q0 117 -73.5 188.5t-225.5 71.5h-327v-518zM901 -209q33 -123 -42 -248t-216 -155
l-10 20q-23 47 33 80q72 45 84 127q-61 -2 -107.5 40t-48.5 103q-2 63 40 108.5t103 49.5q57 2 103.5 -33t60.5 -92z" />
    <glyph glyph-name="Rcaron" unicode="&#x158;" horiz-adv-x="1474" 
d="M1055 1888l-250 -315h-240l-252 315h148q92 0 139 -57l84 -100l84 100q47 57 139 57h148zM449 477v-342q0 -135 -136 -135h-149v1499h680q229 0 372.5 -144.5t143.5 -371.5q0 -172 -86 -306t-225 -173l374 -504h-239q-100 0 -164 84l-287 393h-284zM449 727h327
q299 0 299 258q0 117 -73.5 188.5t-225.5 71.5h-327v-518z" />
    <glyph glyph-name="rcaron" unicode="&#x159;" horiz-adv-x="1474" 
d="M1055 1888l-250 -315h-240l-252 315h148q92 0 139 -57l84 -100l84 100q47 57 139 57h148zM449 477v-342q0 -135 -136 -135h-149v1499h680q229 0 372.5 -144.5t143.5 -371.5q0 -172 -86 -306t-225 -173l374 -504h-239q-100 0 -164 84l-287 393h-284zM449 727h327
q299 0 299 258q0 117 -73.5 188.5t-225.5 71.5h-327v-518z" />
    <glyph glyph-name="Sacute" unicode="&#x15a;" horiz-adv-x="1392" 
d="M543 1591l166 215q72 96 184 47l127 -55l-201 -151q-76 -55 -168 -56h-108zM178 307q68 98 184 37q209 -109 381 -108q150 0 218.5 50t68.5 128q0 41 -20.5 72.5t-46 51t-79 37t-89 25.5t-105.5 23q-221 43 -313 84q-258 115 -258 368q0 125 52 217t139 139.5t181.5 69
t196.5 21.5q176 0 304 -48.5t255 -144.5l-82 -112q-70 -98 -186 -39q-162 78 -322 77q-100 0 -175.5 -35.5t-75.5 -115.5q0 -39 23.5 -72t51 -51t85 -36.5t89 -26t99.5 -21.5q10 -2 73.5 -14.5t91 -18.5t90 -25.5t95.5 -39t80 -55t71.5 -77.5t43 -102.5t18.5 -134.5
q0 -225 -153.5 -342t-415.5 -117q-211 0 -352.5 58.5t-289.5 169.5z" />
    <glyph glyph-name="sacute" unicode="&#x15b;" horiz-adv-x="1392" 
d="M543 1591l166 215q72 96 184 47l127 -55l-201 -151q-76 -55 -168 -56h-108zM178 307q68 98 184 37q209 -109 381 -108q150 0 218.5 50t68.5 128q0 41 -20.5 72.5t-46 51t-79 37t-89 25.5t-105.5 23q-221 43 -313 84q-258 115 -258 368q0 125 52 217t139 139.5t181.5 69
t196.5 21.5q176 0 304 -48.5t255 -144.5l-82 -112q-70 -98 -186 -39q-162 78 -322 77q-100 0 -175.5 -35.5t-75.5 -115.5q0 -39 23.5 -72t51 -51t85 -36.5t89 -26t99.5 -21.5q10 -2 73.5 -14.5t91 -18.5t90 -25.5t95.5 -39t80 -55t71.5 -77.5t43 -102.5t18.5 -134.5
q0 -225 -153.5 -342t-415.5 -117q-211 0 -352.5 58.5t-289.5 169.5z" />
    <glyph glyph-name="Scedilla" unicode="&#x15e;" horiz-adv-x="1392" 
d="M1317 430q0 -221 -148.5 -338t-402.5 -121l-29 -61q39 10 82 -6q113 -39 105 -164q-10 -170 -209 -170q-49 0 -92 14.5t-62 28.5l-16 14l10 23q33 66 96 51q25 -6 64 -6q27 0 45 15.5t18 41.5q0 45 -67 45q-27 0 -53.5 -7t-39.5 -13l-14 -6l-29 47l64 157
q-166 14 -284.5 70.5t-248.5 153.5l72 108q68 98 184 37q209 -109 381 -108q150 0 218.5 50t68.5 128q0 41 -20.5 72.5t-46 51t-79 37t-89 25.5t-105.5 23q-221 43 -313 84q-258 115 -258 368q0 125 52 217t139 139.5t181.5 69t196.5 21.5q176 0 304 -48.5t255 -144.5
l-82 -112q-70 -98 -186 -39q-162 78 -322 77q-100 0 -175.5 -35.5t-75.5 -115.5q0 -39 23.5 -72t51 -51t85 -36.5t89 -26t99.5 -21.5q10 -2 73.5 -14.5t91 -18.5t90 -25.5t95.5 -39t80 -55t71.5 -77.5t43 -102.5t18.5 -134.5z" />
    <glyph glyph-name="scedilla" unicode="&#x15f;" horiz-adv-x="1392" 
d="M1317 430q0 -221 -148.5 -338t-402.5 -121l-29 -61q39 10 82 -6q113 -39 105 -164q-10 -170 -209 -170q-49 0 -92 14.5t-62 28.5l-16 14l10 23q33 66 96 51q25 -6 64 -6q27 0 45 15.5t18 41.5q0 45 -67 45q-27 0 -53.5 -7t-39.5 -13l-14 -6l-29 47l64 157
q-166 14 -284.5 70.5t-248.5 153.5l72 108q68 98 184 37q209 -109 381 -108q150 0 218.5 50t68.5 128q0 41 -20.5 72.5t-46 51t-79 37t-89 25.5t-105.5 23q-221 43 -313 84q-258 115 -258 368q0 125 52 217t139 139.5t181.5 69t196.5 21.5q176 0 304 -48.5t255 -144.5
l-82 -112q-70 -98 -186 -39q-162 78 -322 77q-100 0 -175.5 -35.5t-75.5 -115.5q0 -39 23.5 -72t51 -51t85 -36.5t89 -26t99.5 -21.5q10 -2 73.5 -14.5t91 -18.5t90 -25.5t95.5 -39t80 -55t71.5 -77.5t43 -102.5t18.5 -134.5z" />
    <glyph glyph-name="Scaron" unicode="&#x160;" horiz-adv-x="1392" 
d="M1067 1890l-250 -315h-239l-252 315h147q92 0 139 -57l84 -100l84 100q47 57 140 57h147zM178 307q68 98 184 37q209 -109 381 -108q150 0 218.5 50t68.5 128q0 41 -20.5 72.5t-46 51t-79 37t-89 25.5t-105.5 23q-221 43 -313 84q-258 115 -258 368q0 125 52 217
t139 139.5t181.5 69t196.5 21.5q176 0 304 -48.5t255 -144.5l-82 -112q-70 -98 -186 -39q-162 78 -322 77q-100 0 -175.5 -35.5t-75.5 -115.5q0 -39 23.5 -72t51 -51t85 -36.5t89 -26t99.5 -21.5q10 -2 73.5 -14.5t91 -18.5t90 -25.5t95.5 -39t80 -55t71.5 -77.5t43 -102.5
t18.5 -134.5q0 -225 -153.5 -342t-415.5 -117q-211 0 -352.5 58.5t-289.5 169.5z" />
    <glyph glyph-name="scaron" unicode="&#x161;" horiz-adv-x="1392" 
d="M1067 1890l-250 -315h-239l-252 315h147q92 0 139 -57l84 -100l84 100q47 57 140 57h147zM178 307q68 98 184 37q209 -109 381 -108q150 0 218.5 50t68.5 128q0 41 -20.5 72.5t-46 51t-79 37t-89 25.5t-105.5 23q-221 43 -313 84q-258 115 -258 368q0 125 52 217
t139 139.5t181.5 69t196.5 21.5q176 0 304 -48.5t255 -144.5l-82 -112q-70 -98 -186 -39q-162 78 -322 77q-100 0 -175.5 -35.5t-75.5 -115.5q0 -39 23.5 -72t51 -51t85 -36.5t89 -26t99.5 -21.5q10 -2 73.5 -14.5t91 -18.5t90 -25.5t95.5 -39t80 -55t71.5 -77.5t43 -102.5
t18.5 -134.5q0 -225 -153.5 -342t-415.5 -117q-211 0 -352.5 58.5t-289.5 169.5z" />
    <glyph glyph-name="uni0162" unicode="&#x162;" horiz-adv-x="1269" 
d="M1206 1499v-119q0 -135 -135 -135h-293v-1110q0 -135 -135 -135h-151v1245h-431v119q0 135 136 135h1009zM795 -184q33 -123 -42 -248t-216 -156l-11 21q-23 47 33 80q72 45 84 127q-61 -2 -107.5 39.5t-48.5 103.5q-2 63 40 108.5t104 49.5q57 2 103.5 -33t60.5 -92z
" />
    <glyph glyph-name="uni0163" unicode="&#x163;" horiz-adv-x="1269" 
d="M1206 1499v-119q0 -135 -135 -135h-293v-1110q0 -135 -135 -135h-151v1245h-431v119q0 135 136 135h1009zM795 -184q33 -123 -42 -248t-216 -156l-11 21q-23 47 33 80q72 45 84 127q-61 -2 -107.5 39.5t-48.5 103.5q-2 63 40 108.5t104 49.5q57 2 103.5 -33t60.5 -92z
" />
    <glyph glyph-name="Tcaron" unicode="&#x164;" horiz-adv-x="1269" 
d="M1004 1888l-250 -315h-240l-252 315h148q92 0 139 -57l84 -100l84 100q47 57 139 57h148zM1206 1499v-119q0 -135 -135 -135h-293v-1110q0 -135 -135 -135h-151v1245h-431v119q0 135 136 135h1009z" />
    <glyph glyph-name="tcaron" unicode="&#x165;" horiz-adv-x="1269" 
d="M1004 1888l-250 -315h-240l-252 315h148q92 0 139 -57l84 -100l84 100q47 57 139 57h148zM1206 1499v-119q0 -135 -135 -135h-293v-1110q0 -135 -135 -135h-151v1245h-431v119q0 135 136 135h1009z" />
    <glyph glyph-name="Umacron" unicode="&#x16a;" horiz-adv-x="1613" 
d="M1124 1786v-74q0 -49 -32.5 -82t-81.5 -33h-516v74q0 49 32.5 82t81.5 33h516zM807 -27q-293 0 -468 172t-175 459v895h151q135 0 136 -135v-760q0 -106 35.5 -185t93 -118t115 -57.5t112.5 -18.5t112.5 18.5t115 57.5t93 118t35.5 185v760q0 135 135 135h152v-895
q0 -287 -175 -459t-468 -172z" />
    <glyph glyph-name="umacron" unicode="&#x16b;" horiz-adv-x="1613" 
d="M1124 1786v-74q0 -49 -32.5 -82t-81.5 -33h-516v74q0 49 32.5 82t81.5 33h516zM807 -27q-293 0 -468 172t-175 459v895h151q135 0 136 -135v-760q0 -106 35.5 -185t93 -118t115 -57.5t112.5 -18.5t112.5 18.5t115 57.5t93 118t35.5 185v760q0 135 135 135h152v-895
q0 -287 -175 -459t-468 -172z" />
    <glyph glyph-name="Uring" unicode="&#x16e;" horiz-adv-x="1613" 
d="M811 1497q-92 0 -156.5 64.5t-64.5 156.5q0 90 64.5 154.5t156.5 64.5q90 0 154.5 -64.5t64.5 -154.5q0 -92 -64.5 -156.5t-154.5 -64.5zM811 1800q-35 0 -59.5 -23.5t-24.5 -58.5t24.5 -59.5t59.5 -24.5t58.5 24.5t23.5 59.5t-24.5 58.5t-57.5 23.5zM807 -27
q-293 0 -468 172t-175 459v895h151q135 0 136 -135v-760q0 -106 35.5 -185t93 -118t115 -57.5t112.5 -18.5t112.5 18.5t115 57.5t93 118t35.5 185v760q0 135 135 135h152v-895q0 -287 -175 -459t-468 -172z" />
    <glyph glyph-name="uring" unicode="&#x16f;" horiz-adv-x="1613" 
d="M811 1497q-92 0 -156.5 64.5t-64.5 156.5q0 90 64.5 154.5t156.5 64.5q90 0 154.5 -64.5t64.5 -154.5q0 -92 -64.5 -156.5t-154.5 -64.5zM811 1800q-35 0 -59.5 -23.5t-24.5 -58.5t24.5 -59.5t59.5 -24.5t58.5 24.5t23.5 59.5t-24.5 58.5t-57.5 23.5zM807 -27
q-293 0 -468 172t-175 459v895h151q135 0 136 -135v-760q0 -106 35.5 -185t93 -118t115 -57.5t112.5 -18.5t112.5 18.5t115 57.5t93 118t35.5 185v760q0 135 135 135h152v-895q0 -287 -175 -459t-468 -172z" />
    <glyph glyph-name="Uhungarumlaut" unicode="&#x170;" horiz-adv-x="1613" 
d="M446 1599l166 216q72 96 185 47l127 -56l-201 -151q-76 -55 -168 -56h-109zM834 1599l165 216q72 96 185 47l127 -56l-201 -151q-76 -55 -168 -56h-108zM807 -27q-293 0 -468 172t-175 459v895h151q135 0 136 -135v-760q0 -106 35.5 -185t93 -118t115 -57.5t112.5 -18.5
t112.5 18.5t115 57.5t93 118t35.5 185v760q0 135 135 135h152v-895q0 -287 -175 -459t-468 -172z" />
    <glyph glyph-name="uhungarumlaut" unicode="&#x171;" horiz-adv-x="1613" 
d="M446 1599l166 216q72 96 185 47l127 -56l-201 -151q-76 -55 -168 -56h-109zM834 1599l165 216q72 96 185 47l127 -56l-201 -151q-76 -55 -168 -56h-108zM807 -27q-293 0 -468 172t-175 459v895h151q135 0 136 -135v-760q0 -106 35.5 -185t93 -118t115 -57.5t112.5 -18.5
t112.5 18.5t115 57.5t93 118t35.5 185v760q0 135 135 135h152v-895q0 -287 -175 -459t-468 -172z" />
    <glyph glyph-name="Uogonek" unicode="&#x172;" horiz-adv-x="1613" 
d="M1298 1499h152v-895q0 -256 -139.5 -422t-380.5 -200h-2q-70 -8 -89.5 -70t29.5 -105q29 -27 97 -22q86 10 114 -53l41 -92q-23 -14 -81 -27.5t-101 -11.5q-119 4 -199 67q-55 47 -70.5 137.5t23.5 176.5q-244 33 -386 199.5t-142 422.5v895h151q135 0 136 -135v-760
q0 -106 35.5 -185t93 -118t115 -57.5t112.5 -18.5t112.5 18.5t115 57.5t93 118t35.5 185v760q0 135 135 135z" />
    <glyph glyph-name="uogonek" unicode="&#x173;" horiz-adv-x="1613" 
d="M1298 1499h152v-895q0 -256 -139.5 -422t-380.5 -200h-2q-70 -8 -89.5 -70t29.5 -105q29 -27 97 -22q86 10 114 -53l41 -92q-23 -14 -81 -27.5t-101 -11.5q-119 4 -199 67q-55 47 -70.5 137.5t23.5 176.5q-244 33 -386 199.5t-142 422.5v895h151q135 0 136 -135v-760
q0 -106 35.5 -185t93 -118t115 -57.5t112.5 -18.5t112.5 18.5t115 57.5t93 118t35.5 185v760q0 135 135 135z" />
    <glyph glyph-name="Ydieresis" unicode="&#x178;" horiz-adv-x="1452" 
d="M381 1714.5q0 59.5 41 99t100.5 39.5t98 -39.5t38.5 -99t-38.5 -98.5t-98 -39t-100.5 39t-41 98.5zM799 1714.5q0 59.5 40 99t99 39.5t99 -39.5t40 -99t-40 -98.5t-99 -39t-99 39t-40 98.5zM1053 1407q53 92 161 92h228l-572 -932v-432q0 -135 -135 -135h-151v567
l-568 932h228q109 0 162 -92l321 -545z" />
    <glyph glyph-name="Zacute" unicode="&#x179;" horiz-adv-x="1437" 
d="M563 1591l166 215q72 96 184 47l127 -55l-200 -151q-76 -55 -168 -56h-109zM1382 1499v-35l-841 -1210h678q135 0 135 -135v-119h-1311v33l844 1212h-645q-135 0 -136 135v119h1276z" />
    <glyph glyph-name="zacute" unicode="&#x17a;" horiz-adv-x="1437" 
d="M563 1591l166 215q72 96 184 47l127 -55l-200 -151q-76 -55 -168 -56h-109zM1382 1499v-35l-841 -1210h678q135 0 135 -135v-119h-1311v33l844 1212h-645q-135 0 -136 135v119h1276z" />
    <glyph glyph-name="Zdotaccent" unicode="&#x17b;" horiz-adv-x="1437" 
d="M590 1726.5q0 59.5 41 99.5t100.5 40t98 -40t38.5 -99.5t-38.5 -98.5t-98 -39t-100.5 39t-41 98.5zM1382 1499v-35l-841 -1210h678q135 0 135 -135v-119h-1311v33l844 1212h-645q-135 0 -136 135v119h1276z" />
    <glyph glyph-name="zdotaccent" unicode="&#x17c;" horiz-adv-x="1437" 
d="M590 1726.5q0 59.5 41 99.5t100.5 40t98 -40t38.5 -99.5t-38.5 -98.5t-98 -39t-100.5 39t-41 98.5zM1382 1499v-35l-841 -1210h678q135 0 135 -135v-119h-1311v33l844 1212h-645q-135 0 -136 135v119h1276z" />
    <glyph glyph-name="Zcaron" unicode="&#x17d;" horiz-adv-x="1437" 
d="M1094 1884l-250 -315h-240l-252 315h148q92 0 139 -57l84 -101l84 101q47 57 139 57h148zM1382 1499v-35l-841 -1210h678q135 0 135 -135v-119h-1311v33l844 1212h-645q-135 0 -136 135v119h1276z" />
    <glyph glyph-name="zcaron" unicode="&#x17e;" horiz-adv-x="1437" 
d="M1094 1884l-250 -315h-240l-252 315h148q92 0 139 -57l84 -101l84 101q47 57 139 57h148zM1382 1499v-35l-841 -1210h678q135 0 135 -135v-119h-1311v33l844 1212h-645q-135 0 -136 135v119h1276z" />
    <glyph glyph-name="uni0218" unicode="&#x218;" horiz-adv-x="1392" 
d="M178 307q68 98 184 37q209 -109 381 -108q150 0 218.5 50t68.5 128q0 41 -20.5 72.5t-46 51t-79 37t-89 25.5t-105.5 23q-221 43 -313 84q-258 115 -258 368q0 125 52 217t139 139.5t181.5 69t196.5 21.5q176 0 304 -48.5t255 -144.5l-82 -112q-70 -98 -186 -39
q-162 78 -322 77q-100 0 -175.5 -35.5t-75.5 -115.5q0 -39 23.5 -72t51 -51t85 -36.5t89 -26t99.5 -21.5q10 -2 73.5 -14.5t91 -18.5t90 -25.5t95.5 -39t80 -55t71.5 -77.5t43 -102.5t18.5 -134.5q0 -225 -153.5 -342t-415.5 -117q-211 0 -352.5 58.5t-289.5 169.5z
M907 -188q33 -123 -41.5 -248t-216.5 -156l-10 21q-23 47 33 79q72 45 84 127q-61 -2 -107.5 40t-48.5 104q-2 63 40 108t103 50q57 2 103.5 -33t60.5 -92z" />
    <glyph glyph-name="uni0219" unicode="&#x219;" horiz-adv-x="1392" 
d="M178 307q68 98 184 37q209 -109 381 -108q150 0 218.5 50t68.5 128q0 41 -20.5 72.5t-46 51t-79 37t-89 25.5t-105.5 23q-221 43 -313 84q-258 115 -258 368q0 125 52 217t139 139.5t181.5 69t196.5 21.5q176 0 304 -48.5t255 -144.5l-82 -112q-70 -98 -186 -39
q-162 78 -322 77q-100 0 -175.5 -35.5t-75.5 -115.5q0 -39 23.5 -72t51 -51t85 -36.5t89 -26t99.5 -21.5q10 -2 73.5 -14.5t91 -18.5t90 -25.5t95.5 -39t80 -55t71.5 -77.5t43 -102.5t18.5 -134.5q0 -225 -153.5 -342t-415.5 -117q-211 0 -352.5 58.5t-289.5 169.5z
M907 -188q33 -123 -41.5 -248t-216.5 -156l-10 21q-23 47 33 79q72 45 84 127q-61 -2 -107.5 40t-48.5 104q-2 63 40 108t103 50q57 2 103.5 -33t60.5 -92z" />
    <glyph glyph-name="uni021A" unicode="&#x21a;" horiz-adv-x="1269" 
d="M1206 1499v-119q0 -135 -135 -135h-293v-1110q0 -135 -135 -135h-151v1245h-431v119q0 135 136 135h1009zM795 -184q33 -123 -42 -248t-216 -156l-11 21q-23 47 33 80q72 45 84 127q-61 -2 -107.5 39.5t-48.5 103.5q-2 63 40 108.5t104 49.5q57 2 103.5 -33t60.5 -92z
" />
    <glyph glyph-name="uni021B" unicode="&#x21b;" horiz-adv-x="1269" 
d="M1206 1499v-119q0 -135 -135 -135h-293v-1110q0 -135 -135 -135h-151v1245h-431v119q0 135 136 135h1009zM795 -184q33 -123 -42 -248t-216 -156l-11 21q-23 47 33 80q72 45 84 127q-61 -2 -107.5 39.5t-48.5 103.5q-2 63 40 108.5t104 49.5q57 2 103.5 -33t60.5 -92z
" />
    <glyph glyph-name="circumflex" unicode="&#x2c6;" horiz-adv-x="882" 
d="M63 1593l250 316h240l252 -316h-148q-90 0 -139 58l-88 102l-80 -100q-45 -59 -139 -60h-148z" />
    <glyph glyph-name="caron" unicode="&#x2c7;" horiz-adv-x="884" 
d="M807 1909l-250 -316h-240l-251 316h147q92 0 139 -58l84 -100l84 100q47 57 139 58h148z" />
    <glyph glyph-name="breve" unicode="&#x2d8;" horiz-adv-x="876" 
d="M594 1819q49 66 108 65h113q-23 -143 -124 -228t-253 -85q-150 0 -251 87t-124 226h113q53 0 107 -65q59 -72 157.5 -72t153.5 72z" />
    <glyph glyph-name="dotaccent" unicode="&#x2d9;" horiz-adv-x="432" 
d="M72 1734.5q0 59.5 41 99.5t100 40t98 -40t39 -99.5t-39 -98.5t-98 -39t-100 39t-41 98.5z" />
    <glyph glyph-name="ring" unicode="&#x2da;" horiz-adv-x="569" 
d="M285 1436q-92 0 -157 64.5t-65 156.5q0 90 65 154.5t157 64.5q90 0 154.5 -64.5t64.5 -154.5q0 -92 -64.5 -156.5t-154.5 -64.5zM284.5 1739q-34.5 0 -59 -23.5t-24.5 -58.5t24.5 -59.5t59 -24.5t58.5 24.5t24 59.5t-24 58.5t-58.5 23.5z" />
    <glyph glyph-name="ogonek" unicode="&#x2db;" horiz-adv-x="569" 
d="M348 -387q-115 0 -182 55q-78 63 -92.5 173t47.5 212q43 66 114.5 96.5t137.5 34.5l10 -184q-82 0 -118 -65.5t18 -112.5q31 -29 92 -25q86 10 114 -53l41 -92q-23 -14 -83 -27.5t-99 -11.5z" />
    <glyph glyph-name="tilde" unicode="&#x2dc;" horiz-adv-x="968" 
d="M633 1573q-72 0 -123 33.5t-90 67.5t-80 34q-37 0 -68 -39q-51 -70 -114 -51l-86 24q23 88 88 167t168 81q74 0 127 -33.5t92 -67.5t78 -34q31 0 57 27q61 61 119 41l88 -33q-35 -94 -102.5 -155.5t-153.5 -61.5z" />
    <glyph glyph-name="hungarumlaut" unicode="&#x2dd;" horiz-adv-x="978" 
d="M51 1599l166 216q72 96 184 47l127 -56l-200 -151q-76 -55 -168 -56h-109zM438 1599l166 216q72 96 184 47l127 -56l-200 -151q-76 -55 -168 -56h-109z" />
    <glyph glyph-name="endash" unicode="&#x2013;" horiz-adv-x="1011" 
d="M926 897v-117q0 -135 -135 -135h-713v117q0 135 135 135h713z" />
    <glyph glyph-name="emdash" unicode="&#x2014;" horiz-adv-x="1507" 
d="M1417 897v-117q0 -135 -135 -135h-1204v117q0 135 135 135h1204z" />
    <glyph glyph-name="quoteleft" unicode="&#x2018;" horiz-adv-x="503" 
d="M92 1122q-33 123 42 248t216 156l10 -21q23 -47 -32 -80q-72 -45 -84 -127q61 2 107 -39.5t48 -103.5q2 -63 -40 -108.5t-103 -49.5q-57 -2 -103.5 33t-60.5 92z" />
    <glyph glyph-name="quoteright" unicode="&#x2019;" horiz-adv-x="393" 
d="M348 1399q33 -123 -42 -248t-216 -156l-10 21q-23 47 33 80q72 45 84 127q-61 -2 -107.5 40t-48.5 103q-2 63 40 108.5t103 49.5q57 2 103.5 -33t60.5 -92z" />
    <glyph glyph-name="quotesinglbase" unicode="&#x201a;" horiz-adv-x="430" 
d="M360 160q33 -123 -41.5 -248t-216.5 -156l-10 21q-23 47 33 80q72 45 84 127q-61 -2 -107.5 40t-48.5 103q-2 63 40 108.5t104 49.5q57 2 103 -33t60 -92z" />
    <glyph glyph-name="quotedblleft" unicode="&#x201c;" horiz-adv-x="907" 
d="M92 1122q-33 123 42 248t216 156l10 -21q23 -47 -32 -80q-72 -45 -84 -127q61 2 107 -39.5t48 -103.5q2 -63 -40 -108.5t-103 -49.5q-57 -2 -103.5 33t-60.5 92zM479 1122q-33 123 42 248t216 156l11 -21q23 -47 -33 -80q-72 -45 -84 -127q61 2 107 -39.5t48 -103.5
q2 -63 -39.5 -108.5t-103.5 -49.5q-57 -2 -103.5 33t-60.5 92z" />
    <glyph glyph-name="quotedblright" unicode="&#x201d;" horiz-adv-x="802" 
d="M360 1399q33 -123 -41.5 -248t-216.5 -156l-10 21q-23 47 33 80q72 45 84 127q-61 -2 -107.5 40t-48.5 103q-2 63 40 108.5t104 49.5q57 2 103 -33t60 -92zM748 1399q33 -123 -42 -248t-217 -156l-10 21q-23 47 33 80q72 45 84 127q-61 -2 -107.5 40t-48.5 103
q-2 63 40 108.5t104 49.5q57 2 103.5 -33t60.5 -92z" />
    <glyph glyph-name="quotedblbase" unicode="&#x201e;" horiz-adv-x="802" 
d="M360 160q33 -123 -41.5 -248t-216.5 -156l-10 21q-23 47 33 80q72 45 84 127q-61 -2 -107.5 40t-48.5 103q-2 63 40 108.5t104 49.5q57 2 103 -33t60 -92zM750 160q33 -123 -42 -248t-216 -156l-11 21q-23 47 33 80q72 45 84 127q-61 -2 -107.5 40t-48.5 103
q-2 63 40 108.5t104 49.5q57 2 103.5 -33t60.5 -92z" />
    <glyph glyph-name="dagger" unicode="&#x2020;" horiz-adv-x="989" 
d="M944 1165v-96q0 -135 -135 -135h-199v-934h-96q-135 0 -135 135v799h-334v96q0 135 135 135h199v391h96q135 0 135 -135v-256h334z" />
    <glyph glyph-name="daggerdbl" unicode="&#x2021;" horiz-adv-x="1001" 
d="M45 391v96q0 135 135 136h199v311h-334v96q0 135 135 135h199v391h96q135 0 135 -135v-256h334v-96q0 -135 -135 -135h-199v-311h334v-97q0 -135 -135 -135h-199v-391h-96q-135 0 -135 135v256h-334z" />
    <glyph glyph-name="bullet" unicode="&#x2022;" horiz-adv-x="741" 
d="M139 829.5q0 96.5 67.5 164t164 67.5t164 -67.5t67.5 -164t-67.5 -164t-164 -67.5t-164 67.5t-67.5 164z" />
    <glyph glyph-name="ellipsis" unicode="&#x2026;" horiz-adv-x="1497" 
d="M406 135q0 -63 -44.5 -107t-107.5 -44q-61 0 -105.5 44t-44.5 107q0 61 44.5 105.5t105.5 44.5q63 0 107.5 -44.5t44.5 -105.5zM891 135q0 -63 -44 -107t-108 -44q-61 0 -105 44t-44 107q0 61 44 105.5t105 44.5q63 0 107.5 -44.5t44.5 -105.5zM1376 135q0 -63 -44 -107
t-107 -44q-61 0 -105.5 44t-44.5 107q0 61 44 105.5t106 44.5q63 0 107 -44.5t44 -105.5z" />
    <glyph glyph-name="perthousand" unicode="&#x2030;" horiz-adv-x="2813" 
d="M451 672q-166 0 -274.5 118.5t-108.5 299.5q0 182 108.5 300.5t274 118.5t274.5 -118.5t109 -300.5q0 -178 -109.5 -298t-273.5 -120zM426 0l834 1409q53 92 161 92h127l-833 -1409q-53 -92 -162 -92h-127zM453 1290q-131 0 -131 -200.5t131 -200.5q127 0 127 200.5
t-127 200.5zM1505 -31q-166 0 -274.5 119t-108.5 299q0 182 108.5 301t274.5 119t274.5 -119t108.5 -301q0 -178 -109.5 -298t-273.5 -120zM2367 -31q-166 0 -274 119t-108 299q0 182 108.5 301t274 119t274 -119t108.5 -301q0 -178 -109.5 -298t-273.5 -120zM1507 588
q-131 0 -131 -201t131 -201q127 0 127 201t-127 201zM2370 588q-131 0 -131.5 -201t131.5 -201q127 0 127 201t-127 201z" />
    <glyph glyph-name="guilsinglleft" unicode="&#x2039;" horiz-adv-x="829" 
d="M711 279h-191q-109 0 -164 88l-245 385l247 389q57 90 164 90h187l-318 -479z" />
    <glyph glyph-name="guilsinglright" unicode="&#x203a;" horiz-adv-x="829" 
d="M465 367q-55 -88 -164 -88h-190l319 473l-317 479h186q106 0 164 -90l248 -389z" />
    <glyph glyph-name="fraction" unicode="&#x2044;" horiz-adv-x="1083" 
d="M246 92q-53 -92 -162 -92h-84l840 1409q53 92 161 92h82z" />
    <glyph glyph-name="Euro" unicode="&#x20ac;" horiz-adv-x="1404" 
d="M1358 303q-4 -12 -18.5 -39.5t-56.5 -81t-97.5 -98.5t-147.5 -79t-198 -34q-223 0 -399.5 129t-231.5 398h-164v71q0 135 135 136h10v6q0 37 5 98h-150v72q0 135 135 135h49q45 166 150 289q180 219 461 219q96 0 184 -31t143.5 -71t100.5 -89t61.5 -73.5t22.5 -36.5
l-144 -78q-59 -27 -97 -17.5t-85 56.5q-84 80 -186.5 80t-182 -67t-127.5 -181h414v-72q0 -135 -135 -135h-328q-4 -31 -4 -98v-6h467v-72q0 -135 -135 -135h-305q80 -266 336 -267q117 0 200 84q47 47 83 59.5t98 -9.5z" />
    <glyph glyph-name="trademark" unicode="&#x2122;" horiz-adv-x="1738" 
d="M104 1323v88q0 90 91 90h544v-88q0 -90 -90 -90h-135v-487q0 -90 -90 -91h-94v578h-226zM1542 1501h45v-756h-94q-90 0 -90 91v206l-193 -233l-192 233v-206q0 -90 -90 -91h-94v756h45l331 -405z" />
    <glyph glyph-name="notequal" unicode="&#x2260;" horiz-adv-x="1150" 
d="M1036 989q0 -133 -135 -133h-145l-113 -231h393v-129q0 -135 -135 -136h-387l-53 -110q-47 -98 -160 -98h-166l103 208h-134v129q0 135 136 136h127l114 231h-377v129q0 135 136 135h370l54 111q47 98 159 98h166l-104 -209h151v-131z" />
    <glyph glyph-name="lessequal" unicode="&#x2264;" horiz-adv-x="1064" 
d="M104 987l848 399v-194q0 -115 -108 -154l-418 -153l418 -148q109 -39 108 -153v-195l-848 377v221zM954 127q0 -127 -135 -127h-719v117q0 135 136 135h718v-125z" />
    <glyph glyph-name="greaterequal" unicode="&#x2265;" horiz-adv-x="1064" 
d="M104 1386l848 -399v-221l-848 -377v195q0 115 109 153l418 148l-418 153q-109 39 -109 154v194zM954 252v-117q0 -135 -135 -135h-719v117q0 135 136 135h718z" />
    </font>
</defs>
</svg>
